<?xml version="1.0" encoding="UTF-8"?>
<!-- Generator: visioncortex VTracer -->
<svg id="svg" version="1.1" xmlns="http://www.w3.org/2000/svg" style="display: block;" viewBox="0 0 256 256"><path d="M0 0 C84.48 0 168.96 0 256 0 C256 84.48 256 168.96 256 256 C171.52 256 87.04 256 0 256 C0 171.52 0 87.04 0 0 Z " transform="translate(0,0)" style="fill: #FDFDFC;"/><path d="M0 0 C13.88646353 11.89650303 22.47145522 28.0735091 26.0703125 45.8984375 C26.1308377 48.23098571 26.14706419 50.56636683 26.0703125 52.8984375 C24.4203125 52.5684375 22.7703125 52.2384375 21.0703125 51.8984375 C20.87695312 50.82464844 20.68359375 49.75085938 20.484375 48.64453125 C20.22153532 47.20830017 19.95850426 45.7721041 19.6953125 44.3359375 C19.56898438 43.63146484 19.44265625 42.92699219 19.3125 42.20117188 C18.47749883 37.67129053 17.40307294 33.30813617 16.0703125 28.8984375 C14.7915625 29.0840625 13.5128125 29.2696875 12.1953125 29.4609375 C8.3203125 30.0234375 8.3203125 30.0234375 6.0703125 28.8984375 C5.64788083 32.81524638 5.64788083 32.81524638 7.71484375 34.90625 C8.43027344 35.60492188 9.14570313 36.30359375 9.8828125 37.0234375 C15.92500443 43.5575601 17.68290334 50.58248112 17.3515625 59.390625 C16.45237716 67.40836093 13.80432271 74.125944 8.0703125 79.8984375 C1.39410194 85.06960637 -4.55404634 86.61951919 -12.9296875 85.8984375 C-20.05901987 84.53787789 -24.9872071 79.99232868 -29.9296875 74.8984375 C-30.2596875 74.2384375 -30.5896875 73.5784375 -30.9296875 72.8984375 C-31.9196875 73.3934375 -31.9196875 73.3934375 -32.9296875 73.8984375 C-32.9296875 76.5384375 -32.9296875 79.1784375 -32.9296875 81.8984375 C-31.4446875 82.3934375 -31.4446875 82.3934375 -29.9296875 82.8984375 C-29.9296875 87.5184375 -29.9296875 92.1384375 -29.9296875 96.8984375 C-33.8896875 96.8984375 -37.8496875 96.8984375 -41.9296875 96.8984375 C-41.9296875 92.2784375 -41.9296875 87.6584375 -41.9296875 82.8984375 C-40.9396875 82.5684375 -39.9496875 82.2384375 -38.9296875 81.8984375 C-38.9296875 79.2584375 -38.9296875 76.6184375 -38.9296875 73.8984375 C-43.86090649 76.04794321 -47.72154788 78.97156673 -51.87890625 82.375 C-57.25179486 86.36628868 -64.57552699 85.50561284 -70.9296875 84.8984375 C-78.5739761 82.29353661 -84.02874381 75.27107953 -87.8671875 68.4609375 C-90.09429951 61.73886161 -89.14389494 53.88001317 -88.9296875 46.8984375 C-90.9096875 47.3934375 -90.9096875 47.3934375 -92.9296875 47.8984375 C-93.5896875 45.9184375 -94.2496875 43.9384375 -94.9296875 41.8984375 C-97.01073448 47.0432481 -97.2435579 51.50520434 -97.1796875 56.9609375 C-97.17219482 57.80221191 -97.16470215 58.64348633 -97.15698242 59.51025391 C-96.87177371 76.19257333 -92.76798539 90.27453369 -82.9296875 103.8984375 C-82.41921875 104.60613281 -81.90875 105.31382812 -81.3828125 106.04296875 C-73.38115376 116.08465435 -60.65763022 123.94991818 -47.9296875 125.8984375 C-30.29661833 127.16357081 -14.5572154 124.11372585 -0.6171875 112.5234375 C3.1560581 109.04582764 6.17495151 105.12083894 9.0703125 100.8984375 C7.91857895 98.43043703 7.02247685 96.85060185 5.0703125 94.8984375 C4.80039344 92.21004365 4.98293893 89.60701814 5.0703125 86.8984375 C6.3903125 86.2384375 7.7103125 85.5784375 9.0703125 84.8984375 C9.5653125 88.8584375 9.5653125 88.8584375 10.0703125 92.8984375 C11.5553125 93.3934375 11.5553125 93.3934375 13.0703125 93.8984375 C17.31382734 84.18046457 20.13930716 75.48249822 21.0703125 64.8984375 C22.7203125 64.8984375 24.3703125 64.8984375 26.0703125 64.8984375 C24.75643497 85.37680449 16.73466512 103.08703927 1.6953125 117.1484375 C-12.33626479 129.00846116 -27.52843493 133.42685562 -45.64111328 132.14208984 C-51.08159325 131.56287083 -55.9301426 130.06535982 -60.9296875 127.8984375 C-61.8578125 127.49753906 -62.7859375 127.09664062 -63.7421875 126.68359375 C-82.742299 117.37245956 -93.07161677 100.03929195 -100.03125 80.86328125 C-105.68397455 61.23723293 -102.70716488 39.91155796 -93.6171875 21.9609375 C-83.97741798 5.26310779 -70.38441505 -6.21175584 -51.9296875 -12.1015625 C-33.17065157 -16.0357492 -15.37348339 -11.02791209 0 0 Z " transform="translate(165.9296875,74.1015625)" style="fill: #FBFAF8;"/><path d="M0 0 C4.35043967 3.04530777 7.59092163 6.67722738 11.0234375 10.70703125 C13.25359668 13.29419219 15.56031382 15.80074302 17.875 18.3125 C22.08974992 22.91857373 26.04003838 27.67952357 29.89453125 32.58984375 C33.46232577 36.67394248 36.76466117 39.78506357 42.25 40.3125 C46.76520925 39.93623256 48.62142828 38.99464311 52 36 C54.99013752 30.81709497 55.64726234 26.82536108 55 21 C52.9909426 17.19714135 50.91923595 13.90665533 47 12 C42.65993452 11.41262272 39.11160174 11.52697798 35.0625 13.25 C32.82700464 15.14678394 31.87619481 16.21210741 31 19 C30.66542102 23.09859246 30.67463937 24.51195905 33 28 C35.31 27.67 37.62 27.34 40 27 C38.68 26.34 37.36 25.68 36 25 C36.99 25 37.98 25 39 25 C39 24.34 39 23.68 39 23 C41.43338652 21.46491972 42.67124507 20.96911696 45.578125 21.2421875 C46.45984375 21.45101562 47.3415625 21.65984375 48.25 21.875 C49.14203125 22.07867187 50.0340625 22.28234375 50.953125 22.4921875 C51.62859375 22.65976563 52.3040625 22.82734375 53 23 C51.84826645 25.46800047 50.95216435 27.04783565 49 29 C46.57421875 29.37890625 46.57421875 29.37890625 43.6875 29.5625 C40.03798036 29.80646516 36.57428085 30.2122259 33 31 C29.93328166 28.02911661 28.65778134 25.76916301 28.4375 21.5625 C28.66444905 16.51918787 30.35269801 14.39862231 34 11 C38.24625912 8.44348936 42.16413113 8.45303458 47 9 C51.59339682 10.87911688 54.11885731 14.07844468 57 18 C58.69717737 23.20969003 59.0552698 29.11033596 57.1640625 34.2890625 C54.27338128 39.46900804 50.66267409 42.27093921 45 44 C39.14843772 44.80711204 36.64114145 43.46507965 32 40 C29.90725133 38.01394048 27.98102125 35.90345497 26.0625 33.75 C25.53744873 33.17080811 25.01239746 32.59161621 24.47143555 31.99487305 C20.59637191 27.70806519 16.78979797 23.3621702 13 19 C3.82557704 7.35048303 3.82557704 7.35048303 -9.07421875 1.7265625 C-18.31494298 1.42536515 -18.31494298 1.42536515 -26.3828125 5.37890625 C-30.86170575 9.86861808 -33.51985037 14.59800489 -34 21 C-33.34 21 -32.68 21 -32 21 C-31.9690625 19.515 -31.9690625 19.515 -31.9375 18 C-31.18031656 12.75303867 -27.84945771 9.41831844 -24 6 C-18.78752897 2.91112828 -13.93390786 2.10683394 -8 3 C1.15544085 5.74663226 7.08543414 13.82759355 13.0859375 20.80078125 C16.1854189 24.36202212 19.3868037 27.8300435 22.57421875 31.3125 C24.70339819 33.67139768 26.76361933 36.07169699 28.8125 38.5 C31.98519867 42.08397442 34.35230298 44.68798183 39.3203125 45.2734375 C44.60711146 45.47859686 48.53274592 45.08453258 53 42 C57.91562758 36.67473678 59.3026167 32.87780702 59.375 25.625 C59.40335937 24.33851563 59.43171875 23.05203125 59.4609375 21.7265625 C58.93383969 17.46511071 57.53604501 15.39809984 55 12 C55 11.34 55 10.68 55 10 C53.67661368 9.31379969 52.34050052 8.65213539 51 8 C50.236875 7.62875 49.47375 7.2575 48.6875 6.875 C43.95330131 5.33363299 40.2137012 5.60988176 35.5 7.125 C31.46653798 9.28578322 28.31975009 11.88205843 25 15 C26.42630308 11.66950878 28.15014396 9.68261063 30.875 7.3125 C31.55304688 6.71050781 32.23109375 6.10851562 32.9296875 5.48828125 C37.08892744 2.49833707 42.01130283 2.37414526 47 3 C53.72693844 4.97777029 57.41476366 9.15400953 61 15 C61.37511719 15.60457031 61.75023437 16.20914063 62.13671875 16.83203125 C64.39423086 22.50134899 63.97742476 29.97609214 62.125 35.70703125 C59.04327039 41.65760783 54.45623967 46.84792011 48 49 C42.72412826 49.46439852 37.77692412 49.78184661 32.875 47.625 C26.73930881 42.02284717 20.95281728 36.30391075 15.75 29.8125 C11.9134642 25.03053216 7.89587393 20.45404225 3.75 15.9375 C3.15928711 15.28177002 2.56857422 14.62604004 1.95996094 13.95043945 C-1.86952143 9.82133856 -4.7323441 7.44535405 -10.46484375 6.6640625 C-16.18673648 6.57366925 -19.53477184 7.06634662 -24 11 C-27.24057757 14.42060966 -28.73670651 17.47319833 -30 22 C-28.24585599 19.71961279 -26.70361575 17.49191271 -25.25 15 C-21.7376015 10.316802 -18.28658408 8.32665487 -12.5 7.5 C-5.24828306 8.53595956 -0.75238943 12.83088016 3.875 18.125 C4.3903833 18.69903564 4.9057666 19.27307129 5.43676758 19.86450195 C6.47793273 21.02574568 7.51520364 22.19049404 8.54833984 23.35888672 C10.57643039 25.65165912 12.63363666 27.91781915 14.6875 30.1875 C16.929417 32.68168352 19.1614756 35.1832178 21.37890625 37.69921875 C22.16136719 38.58222656 22.94382813 39.46523437 23.75 40.375 C24.44609375 41.16648438 25.1421875 41.95796875 25.859375 42.7734375 C29.47600101 46.53525652 32.70958246 49.8473055 38.046875 50.203125 C39.26890625 50.21859375 40.4909375 50.2340625 41.75 50.25 C43.56757813 50.28867188 43.56757813 50.28867188 45.421875 50.328125 C51.82036817 49.74136362 55.92031839 46.83120191 60 42 C65.22001046 35.14767357 64.74236063 27.26555184 64 19 C62.57857753 11.90382167 58.58843332 7.04917638 53 2.625 C47.75770003 -0.11111271 41.71913476 0.25089419 36 1 C33.3093775 2.06522939 31.39817216 3.33170632 29 5 C28.01 5 27.02 5 26 5 C32.7397933 -0.82073057 36.62288095 -2.49445839 45.74609375 -2.30078125 C53.66589464 -1.56869881 58.30886533 2.51945818 63.30078125 8.51171875 C68.39931415 15.97784624 69.12296766 24.84239402 67.53125 33.5703125 C65.25281924 42.43991795 60.79101425 48.43303373 52.9296875 53.08984375 C47.05977751 55.85844502 40.15341895 55.91986671 34 54 C28.67583538 51.78249079 22.60765389 47.21530778 20 42 C19.01 42.495 19.01 42.495 18 43 C18 45.64 18 48.28 18 51 C18.99 51.33 19.98 51.66 21 52 C21 56.62 21 61.24 21 66 C17.04 66 13.08 66 9 66 C9 61.38 9 56.76 9 52 C9.99 51.67 10.98 51.34 12 51 C12 48.36 12 45.72 12 43 C7.06878101 45.14950571 3.20813962 48.07312923 -0.94921875 51.4765625 C-6.32210736 55.46785118 -13.64583949 54.60717534 -20 54 C-27.0037321 51.61337791 -32.27770982 45.3633871 -36.1015625 39.234375 C-39.44782224 32.04148023 -39.39286423 22.42506661 -37.05078125 14.984375 C-34.77462651 10.18793535 -32.07212059 6.4613025 -28 3 C-27.175 2.278125 -26.35 1.55625 -25.5 0.8125 C-17.59476862 -4.91879275 -8.56709136 -4.03157241 0 0 Z " transform="translate(115,105)" style="fill: #F7F6F0;"/><path d="M0 0 C13.88646353 11.89650303 22.47145522 28.0735091 26.0703125 45.8984375 C26.1308377 48.23098571 26.14706419 50.56636683 26.0703125 52.8984375 C24.4203125 52.5684375 22.7703125 52.2384375 21.0703125 51.8984375 C20.87695312 50.82464844 20.68359375 49.75085938 20.484375 48.64453125 C20.22153532 47.20830017 19.95850426 45.7721041 19.6953125 44.3359375 C19.56898438 43.63146484 19.44265625 42.92699219 19.3125 42.20117188 C18.47749883 37.67129053 17.40307294 33.30813617 16.0703125 28.8984375 C13.4303125 29.2284375 10.7903125 29.5584375 8.0703125 29.8984375 C7.0803125 27.9184375 7.0803125 27.9184375 6.0703125 25.8984375 C8.0503125 25.2384375 10.0303125 24.5784375 12.0703125 23.8984375 C10.7503125 21.5884375 9.4303125 19.2784375 8.0703125 16.8984375 C4.2939193 16.6002951 4.2939193 16.6002951 2.0703125 17.8984375 C-2.54354497 17.78878458 -6.92558632 17.23313789 -11.3046875 15.7734375 C-14.98634185 14.88476231 -17.27260969 15.03545074 -20.9921875 15.4609375 C-25.8465516 15.97800636 -28.87472695 15.9670563 -32.9296875 12.8984375 C-33.9296875 9.8984375 -33.9296875 9.8984375 -32.96875 7.453125 C-32.50210938 6.56882812 -32.03546875 5.68453125 -31.5546875 4.7734375 C-31.09320313 3.88398437 -30.63171875 2.99453125 -30.15625 2.078125 C-28.9296875 -0.1015625 -28.9296875 -0.1015625 -27.9296875 -1.1015625 C-25.91374168 -1.33584028 -23.8912135 -1.51492374 -21.8671875 -1.6640625 C-20.76246094 -1.74785156 -19.65773438 -1.83164063 -18.51953125 -1.91796875 C-17.66488281 -1.97855469 -16.81023437 -2.03914063 -15.9296875 -2.1015625 C-15.9296875 -2.7615625 -15.9296875 -3.4215625 -15.9296875 -4.1015625 C-16.61675781 -4.23433594 -17.30382812 -4.36710937 -18.01171875 -4.50390625 C-18.91277344 -4.68050781 -19.81382812 -4.85710937 -20.7421875 -5.0390625 C-21.63550781 -5.21308594 -22.52882813 -5.38710937 -23.44921875 -5.56640625 C-25.9296875 -6.1015625 -25.9296875 -6.1015625 -28.9296875 -7.1015625 C-32.00897526 -7.32820478 -35.09289974 -7.28672048 -38.1796875 -7.2890625 C-39.43072266 -7.30743164 -39.43072266 -7.30743164 -40.70703125 -7.32617188 C-45.84476433 -7.33827015 -50.0642157 -6.76502786 -54.9296875 -5.1015625 C-51.78395073 -3.00440465 -49.91512499 -2.58151691 -46.2421875 -1.9765625 C-44.75138672 -1.72519531 -44.75138672 -1.72519531 -43.23046875 -1.46875 C-42.47121094 -1.34757812 -41.71195313 -1.22640625 -40.9296875 -1.1015625 C-39.63962801 2.89403842 -40.25415227 5.31731828 -41.76953125 9.14453125 C-43.69130605 12.04984063 -46.68144463 12.130671 -49.9296875 12.8984375 C-51.29753008 15.14985729 -51.29753008 15.14985729 -51.9296875 17.8984375 C-52.91450772 19.90595565 -53.91121264 21.90778209 -54.9296875 23.8984375 C-56.5796875 23.5684375 -58.2296875 23.2384375 -59.9296875 22.8984375 C-58.88339844 20.78475268 -57.81907301 18.6839691 -56.7421875 16.5859375 C-56.15050781 15.41417969 -55.55882812 14.24242187 -54.94921875 13.03515625 C-52.85450852 9.78167015 -51.41491831 8.47848485 -47.9296875 6.8984375 C-47.2696875 6.8984375 -46.6096875 6.8984375 -45.9296875 6.8984375 C-45.9296875 5.5784375 -45.9296875 4.2584375 -45.9296875 2.8984375 C-46.59355469 2.87265625 -47.25742188 2.846875 -47.94140625 2.8203125 C-53.47410491 2.46492748 -56.89534825 2.06725472 -60.9296875 -2.1015625 C-74.272715 2.71220924 -84.90947411 15.42263368 -90.9296875 27.8984375 C-92.07817016 32.51847291 -92.07817016 32.51847291 -90.9296875 36.8984375 C-90.57674632 43.36902574 -90.57674632 43.36902574 -92.9296875 46.8984375 C-93.5896875 45.2484375 -94.2496875 43.5984375 -94.9296875 41.8984375 C-97.01073448 47.0432481 -97.2435579 51.50520434 -97.1796875 56.9609375 C-97.17219482 57.80221191 -97.16470215 58.64348633 -97.15698242 59.51025391 C-96.87177371 76.19257333 -92.76798539 90.27453369 -82.9296875 103.8984375 C-82.41921875 104.60613281 -81.90875 105.31382812 -81.3828125 106.04296875 C-73.38115376 116.08465435 -60.65763022 123.94991818 -47.9296875 125.8984375 C-30.29661833 127.16357081 -14.5572154 124.11372585 -0.6171875 112.5234375 C3.1560581 109.04582764 6.17495151 105.12083894 9.0703125 100.8984375 C7.91857895 98.43043703 7.02247685 96.85060185 5.0703125 94.8984375 C4.80039344 92.21004365 4.98293893 89.60701814 5.0703125 86.8984375 C6.3903125 86.2384375 7.7103125 85.5784375 9.0703125 84.8984375 C9.5653125 88.8584375 9.5653125 88.8584375 10.0703125 92.8984375 C11.5553125 93.3934375 11.5553125 93.3934375 13.0703125 93.8984375 C17.31382734 84.18046457 20.13930716 75.48249822 21.0703125 64.8984375 C22.7203125 64.8984375 24.3703125 64.8984375 26.0703125 64.8984375 C24.75643497 85.37680449 16.73466512 103.08703927 1.6953125 117.1484375 C-12.33626479 129.00846116 -27.52843493 133.42685562 -45.64111328 132.14208984 C-51.08159325 131.56287083 -55.9301426 130.06535982 -60.9296875 127.8984375 C-61.8578125 127.49753906 -62.7859375 127.09664062 -63.7421875 126.68359375 C-82.742299 117.37245956 -93.07161677 100.03929195 -100.03125 80.86328125 C-105.68397455 61.23723293 -102.70716488 39.91155796 -93.6171875 21.9609375 C-83.97741798 5.26310779 -70.38441505 -6.21175584 -51.9296875 -12.1015625 C-33.17065157 -16.0357492 -15.37348339 -11.02791209 0 0 Z " transform="translate(165.9296875,74.1015625)" style="fill: #B2844F;"/><path d="M0 0 C1.32 0.33 2.64 0.66 4 1 C1.75575611 5.82923686 -1.31290885 10.16710303 -4.22265625 14.61328125 C-6.11462595 18.21841911 -6.75854292 20.95436195 -7 25 C-6.67 25.66 -6.34 26.32 -6 27 C-5.64705882 33.47058824 -5.64705882 33.47058824 -8 37 C-8.66 35.35 -9.32 33.7 -10 32 C-12.08104698 37.1448106 -12.3138704 41.60676684 -12.25 47.0625 C-12.24250732 47.90377441 -12.23501465 48.74504883 -12.22729492 49.61181641 C-11.94208621 66.29413583 -7.83829789 80.37609619 2 94 C2.51046875 94.70769531 3.0209375 95.41539062 3.546875 96.14453125 C11.54853374 106.18621685 24.27205728 114.05148068 37 116 C54.63306917 117.26513331 70.3724721 114.21528835 84.3125 102.625 C88.0857456 99.14739014 91.10463901 95.22240144 94 91 C92.84826645 88.53199953 91.95216435 86.95216435 90 85 C89.73008094 82.31160615 89.91262643 79.70858064 90 77 C91.32 76.34 92.64 75.68 94 75 C94.495 78.96 94.495 78.96 95 83 C96.485 83.495 96.485 83.495 98 84 C102.24351484 74.28202707 105.06899466 65.58406072 106 55 C107.65 55 109.3 55 111 55 C109.68612247 75.47836699 101.66435262 93.18860177 86.625 107.25 C72.59342271 119.11002366 57.40125257 123.52841812 39.28857422 122.24365234 C33.84809425 121.66443333 28.9995449 120.16692232 24 118 C23.071875 117.59910156 22.14375 117.19820313 21.1875 116.78515625 C2.1873885 107.47402206 -8.14192927 90.14085445 -15.1015625 70.96484375 C-20.79262342 51.20569298 -17.75771473 29.82148992 -8.5 11.8125 C-6.01688422 7.47655604 -3.42615075 3.63379625 0 0 Z " transform="translate(81,84)" style="fill: #A9804B;"/><path d="M0 0 C4.35043967 3.04530777 7.59092163 6.67722738 11.0234375 10.70703125 C13.25359668 13.29419219 15.56031382 15.80074302 17.875 18.3125 C22.08974992 22.91857373 26.04003838 27.67952357 29.89453125 32.58984375 C33.46232577 36.67394248 36.76466117 39.78506357 42.25 40.3125 C46.76520925 39.93623256 48.62142828 38.99464311 52 36 C54.99013752 30.81709497 55.64726234 26.82536108 55 21 C52.9909426 17.19714135 50.91923595 13.90665533 47 12 C42.65993452 11.41262272 39.11160174 11.52697798 35.0625 13.25 C32.82700464 15.14678394 31.87619481 16.21210741 31 19 C30.66542102 23.09859246 30.67463937 24.51195905 33 28 C35.31 27.67 37.62 27.34 40 27 C38.68 26.34 37.36 25.68 36 25 C36.99 25 37.98 25 39 25 C39 24.34 39 23.68 39 23 C41.43338652 21.46491972 42.67124507 20.96911696 45.578125 21.2421875 C46.45984375 21.45101562 47.3415625 21.65984375 48.25 21.875 C49.14203125 22.07867187 50.0340625 22.28234375 50.953125 22.4921875 C51.62859375 22.65976563 52.3040625 22.82734375 53 23 C51.84826645 25.46800047 50.95216435 27.04783565 49 29 C46.57421875 29.37890625 46.57421875 29.37890625 43.6875 29.5625 C40.03798036 29.80646516 36.57428085 30.2122259 33 31 C29.93328166 28.02911661 28.65778134 25.76916301 28.4375 21.5625 C28.66444905 16.51918787 30.35269801 14.39862231 34 11 C38.24625912 8.44348936 42.16413113 8.45303458 47 9 C51.59339682 10.87911688 54.11885731 14.07844468 57 18 C58.69717737 23.20969003 59.0552698 29.11033596 57.1640625 34.2890625 C54.27338128 39.46900804 50.66267409 42.27093921 45 44 C39.14843772 44.80711204 36.64114145 43.46507965 32 40 C29.90725133 38.01394048 27.98102125 35.90345497 26.0625 33.75 C25.53744873 33.17080811 25.01239746 32.59161621 24.47143555 31.99487305 C20.59637191 27.70806519 16.78979797 23.3621702 13 19 C3.82557704 7.35048303 3.82557704 7.35048303 -9.07421875 1.7265625 C-18.30926647 1.43115886 -18.30926647 1.43115886 -26.3828125 5.3671875 C-32.76010596 11.80609732 -34.28294496 18.2830084 -34.32128906 27.15966797 C-34.18170773 34.99319871 -31.57086423 41.42913577 -26 47 C-20.81841898 50.99413537 -16.58310607 51.67738893 -10.0703125 51.45703125 C-3.08809481 50.4176935 2.80715332 46.67356201 8 42 C8.99 42.495 8.99 42.495 10 43 C7.89965153 44.65091584 5.79504167 46.29581238 3.6875 47.9375 C2.79514648 48.64036133 2.79514648 48.64036133 1.88476562 49.35742188 C-5.07736337 54.76376785 -11.37410618 54.82425208 -20 54 C-27.0037321 51.61337791 -32.27770982 45.3633871 -36.1015625 39.234375 C-39.44782224 32.04148023 -39.39286423 22.42506661 -37.05078125 14.984375 C-34.77462651 10.18793535 -32.07212059 6.4613025 -28 3 C-27.175 2.278125 -26.35 1.55625 -25.5 0.8125 C-17.59476862 -4.91879275 -8.56709136 -4.03157241 0 0 Z " transform="translate(115,105)" style="fill: #B58B56;"/><path d="M0 0 C6.32017518 3.81620747 11.33368116 9.48274666 13.6875 16.5 C15.9369261 25.95051095 15.2459191 35.23272647 10.43359375 43.79296875 C6.34983752 49.72387358 0.88037769 54.18779944 -6.3125 55.5625 C-13.57625751 56.27249134 -19.54130408 55.31500078 -25.49609375 50.96875 C-30.58874245 46.66162251 -34.71578526 41.78416728 -38.84765625 36.5703125 C-42.09305161 32.61000437 -45.55730774 28.88237148 -49.0637207 25.15356445 C-51.47252615 22.58517109 -53.80294991 19.99643821 -56.02734375 17.265625 C-58.48758376 14.35539238 -59.61425734 13.33655079 -63.3125 12.5625 C-67.5542854 12.50202648 -70.53944256 13.0919433 -74.1875 15.3125 C-77.63038202 18.9579045 -78.22919487 21.51285536 -78.625 26.5 C-78.46903667 31.67603309 -76.62742949 35.04833876 -73.25 38.9375 C-68.9696108 41.30537487 -65.09937861 41.36424322 -60.3125 40.5625 C-57.37826805 38.76603146 -55.84044645 37.6183929 -54.3125 34.5625 C-53.97157959 29.23282792 -53.97157959 29.23282792 -56.3125 24.5625 C-57.3025 24.2325 -58.2925 23.9025 -59.3125 23.5625 C-58.6525 24.8825 -57.9925 26.2025 -57.3125 27.5625 C-59.2925 28.5525 -59.2925 28.5525 -61.3125 29.5625 C-60.9825 29.8925 -60.6525 30.2225 -60.3125 30.5625 C-59.95087971 31.88844105 -59.61521961 33.22188457 -59.3125 34.5625 C-58.6525 32.5825 -57.9925 30.6025 -57.3125 28.5625 C-56.9825 28.5625 -56.6525 28.5625 -56.3125 28.5625 C-56 31.375 -56 31.375 -56.3125 34.5625 C-58.8125 36.4375 -58.8125 36.4375 -61.3125 37.5625 C-61.704375 37.088125 -62.09625 36.61375 -62.5 36.125 C-64.72058374 34.21070367 -66.44625709 33.94983012 -69.3125 33.5625 C-68.06370909 29.81612727 -66.15454893 28.27236061 -63.3125 25.5625 C-62.631875 24.77875 -61.95125 23.995 -61.25 23.1875 C-59.3125 21.5625 -59.3125 21.5625 -57.25 21.5625 C-54.57034694 22.94554674 -53.67948729 23.82852543 -52.3125 26.5625 C-51.6451775 30.37784384 -51.43841818 33.92186231 -53.296875 37.41015625 C-56.20880323 41.0680414 -59.07246074 43.2820398 -63.71484375 43.86328125 C-72.65705996 43.90461661 -72.65705996 43.90461661 -76.3125 40.5625 C-81.01719347 35.3481314 -82.11764139 30.4184995 -81.79296875 23.46875 C-80.92309656 18.20708406 -78.74468758 14.59606301 -74.66796875 11.1875 C-70.54678218 8.50826359 -67.11554087 7.8763513 -62.3125 8.5625 C-56.94194553 11.20396152 -53.35064508 14.21053533 -49.4375 18.6875 C-48.9221167 19.26153564 -48.4067334 19.83557129 -47.87573242 20.42700195 C-46.83456727 21.58824568 -45.79729636 22.75299404 -44.76416016 23.92138672 C-42.73606961 26.21415912 -40.67886334 28.48031915 -38.625 30.75 C-36.383083 33.24418352 -34.1510244 35.7457178 -31.93359375 38.26171875 C-31.15113281 39.14472656 -30.36867187 40.02773437 -29.5625 40.9375 C-28.86640625 41.72898438 -28.1703125 42.52046875 -27.453125 43.3359375 C-23.83649899 47.09775652 -20.60291754 50.4098055 -15.265625 50.765625 C-14.04359375 50.78109375 -12.8215625 50.7965625 -11.5625 50.8125 C-9.74492187 50.85117188 -9.74492187 50.85117188 -7.890625 50.890625 C-1.49213183 50.30386362 2.60781839 47.39370191 6.6875 42.5625 C11.90751046 35.71017357 11.42986063 27.82805184 10.6875 19.5625 C9.26607753 12.46632167 5.27593332 7.61167638 -0.3125 3.1875 C-5.55479997 0.45138729 -11.59336524 0.81339419 -17.3125 1.5625 C-20.0031225 2.62772939 -21.91432784 3.89420632 -24.3125 5.5625 C-25.3025 5.5625 -26.2925 5.5625 -27.3125 5.5625 C-19.30636747 -1.35188719 -10.51810862 -4.57945485 0 0 Z " transform="translate(168.3125,104.4375)" style="fill: #B48956;"/><path d="M0 0 C8.64621377 1.46411858 15.71077583 10.27082465 20.83203125 16.82421875 C28.81871396 28.52362964 35.43499873 42.626917 35 57 C33.35 56.67 31.7 56.34 30 56 C29.80664062 54.92621094 29.61328125 53.85242188 29.4140625 52.74609375 C29.15122282 51.30986267 28.88819176 49.8736666 28.625 48.4375 C28.49867188 47.73302734 28.37234375 47.02855469 28.2421875 46.30273438 C27.40718633 41.77285303 26.33276044 37.40969867 25 33 C22.36 33.33 19.72 33.66 17 34 C16.34 32.68 15.68 31.36 15 30 C16.98 29.34 18.96 28.68 21 28 C19.68 25.69 18.36 23.38 17 21 C13.2236068 20.7018576 13.2236068 20.7018576 11 22 C3.92038143 21.94458224 -3.38746534 20.5082028 -10 18 C-10.33 17.34 -10.66 16.68 -11 16 C-13.32156597 15.59270772 -15.6568787 15.25561323 -18 15 C-18.625 13.1875 -18.625 13.1875 -19 11 C-18.34 10.01 -17.68 9.02 -17 8 C-15.046875 7.62890625 -15.046875 7.62890625 -12.75 7.5625 C-8.20802053 7.20411515 -5.56287428 5.95457867 -2 3 C-1.34 2.01 -0.68 1.02 0 0 Z " transform="translate(157,70)" style="fill: #C49555;"/><path d="M0 0 C4.66154042 1.49835228 5.86610751 4.88463591 8 9 C6.865625 9.391875 5.73125 9.78375 4.5625 10.1875 C0.79660949 11.58610882 0.79660949 11.58610882 0.0625 14.6875 C0.041875 15.450625 0.02125 16.21375 0 17 C-0.886875 16.67 -1.77375 16.34 -2.6875 16 C-8.94651579 14.25714398 -16.28255154 13.61413521 -22.44140625 15.91015625 C-25.8330303 17.91166494 -28.20594252 20.11297493 -30.5625 23.25 C-33 26 -33 26 -36.6875 27 C-40 27 -40 27 -42 25 C-42.40047444 22.67724823 -42.7397104 20.34260643 -43 18 C-42.01 18 -41.02 18 -40 18 C-39.67 16.68 -39.34 15.36 -39 14 C-41.475 13.01 -41.475 13.01 -44 12 C-44 11.34 -44 10.68 -44 10 C-42.7625 10.061875 -41.525 10.12375 -40.25 10.1875 C-37.21788698 10.20362826 -36.17751704 10.10651023 -33.5 8.5 C-33.005 8.005 -32.51 7.51 -32 7 C-31.67 7.66 -31.34 8.32 -31 9 C-30.01 7.02 -29.02 5.04 -28 3 C-24.37 3 -20.74 3 -17 3 C-17 2.34 -17 1.68 -17 1 C-16.02417969 1.09539062 -15.04835937 1.19078125 -14.04296875 1.2890625 C-12.13451172 1.45535156 -12.13451172 1.45535156 -10.1875 1.625 C-8.92292969 1.74101563 -7.65835938 1.85703125 -6.35546875 1.9765625 C-2.86442059 2.31441804 -2.86442059 2.31441804 0 0 Z " transform="translate(171,89)" style="fill: #FAF8F4;"/><path d="M0 0 C6.9028096 3.88967843 11.92187622 10.37225455 17.0234375 16.30078125 C20.1229189 19.86202212 23.3243037 23.3300435 26.51171875 26.8125 C28.64089819 29.17139768 30.70111933 31.57169699 32.75 34 C35.92269867 37.58397442 38.28980298 40.18798183 43.2578125 40.7734375 C48.54461146 40.97859686 52.47024592 40.58453258 56.9375 37.5 C61.85312758 32.17473678 63.2401167 28.37780702 63.3125 21.125 C63.34085937 19.83851563 63.36921875 18.55203125 63.3984375 17.2265625 C62.87133969 12.96511071 61.47354501 10.89809984 58.9375 7.5 C58.9375 6.84 58.9375 6.18 58.9375 5.5 C57.61411368 4.81379969 56.27800052 4.15213539 54.9375 3.5 C54.174375 3.12875 53.41125 2.7575 52.625 2.375 C47.89080131 0.83363299 44.1512012 1.10988176 39.4375 2.625 C35.40403798 4.78578322 32.25725009 7.38205843 28.9375 10.5 C30.36380308 7.16950878 32.08764396 5.18261063 34.8125 2.8125 C35.49054688 2.21050781 36.16859375 1.60851562 36.8671875 0.98828125 C41.02642744 -2.00166293 45.94880283 -2.12585474 50.9375 -1.5 C57.66443844 0.47777029 61.35226366 4.65400953 64.9375 10.5 C65.31261719 11.10457031 65.68773437 11.70914063 66.07421875 12.33203125 C68.33173086 18.00134899 67.91492476 25.47609214 66.0625 31.20703125 C62.98077039 37.15760783 58.39373967 42.34792011 51.9375 44.5 C46.66162826 44.96439852 41.71442412 45.28184661 36.8125 43.125 C30.67680881 37.52284717 24.89031728 31.80391075 19.6875 25.3125 C15.8509642 20.53053216 11.83337393 15.95404225 7.6875 11.4375 C7.09678711 10.78177002 6.50607422 10.12604004 5.89746094 9.45043945 C2.06797857 5.32133856 -0.7948441 2.94535405 -6.52734375 2.1640625 C-12.24923648 2.07366925 -15.59727184 2.56634662 -20.0625 6.5 C-25.08866055 11.94500726 -26.55574619 16.6313421 -26.37109375 23.94140625 C-25.53795129 30.8491064 -21.94000047 35.13091119 -16.6484375 39.37109375 C-12.96313603 41.99437485 -9.44035954 41.90742853 -5.0625 41.5 C1.99159843 39.57615497 6.06770502 34.76732927 10.9375 29.5 C10.9375 33.48646486 9.64846043 34.22190942 6.875 37 C1.71596443 41.94977672 -2.23430165 44.49078012 -9.5 45 C-15.81013557 44.77386886 -20.09327028 41.52245215 -24.375 37.125 C-29.15388153 29.69118429 -30.4269724 23.01535573 -28.59375 14.26171875 C-26.47802304 7.77600813 -22.61706441 2.99417918 -16.75 -0.4375 C-10.85359219 -2.13646496 -5.71252199 -2.52023029 0 0 Z " transform="translate(111.0625,109.5)" style="fill: #BA8D51;"/><path d="M0 0 C4.4656954 2.78553277 7.63963303 6.27926606 10 11 C9.34 11 8.68 11 8 11 C7.67 11.99 7.34 12.98 7 14 C6.01 12.68 5.02 11.36 4 10 C-0.24822374 10.47202486 -2.19989709 12.96655518 -5 16 C-4.67 16.78375 -4.34 17.5675 -4 18.375 C-3 21 -3 21 -3 23 C-2.01 23.33 -1.02 23.66 0 24 C0.33 23.67 0.66 23.34 1 23 C0.67 23 0.34 23 0 23 C0 21.35 0 19.7 0 18 C-0.99 17.67 -1.98 17.34 -3 17 C-1.68 16.67 -0.36 16.34 1 16 C1 15.01 1 14.02 1 13 C1 12.34 1 11.68 1 11 C2.875 11.3125 2.875 11.3125 5 12 C7.51250583 15.76875875 7.53016086 17.53150134 7 22 C5.21847933 24.97361628 3.14692775 27.42653612 0 29 C-4.25239453 29.61414839 -8.28722388 29.92970361 -12.14453125 27.8359375 C-15.54622314 25.04296942 -18.0572738 22.39938893 -19 18 C-19.44719064 12.36539794 -19.19721016 8.85093956 -16 4 C-10.98900217 -0.63517299 -6.64709689 -1.98803081 0 0 Z " transform="translate(108,117)" style="fill: #FAF9F6;"/><path d="M0 0 C1.65 0 3.3 0 5 0 C3.68612247 20.47836699 -4.33564738 38.18860177 -19.375 52.25 C-27.13763553 58.83165337 -35.9110268 64.00150121 -46 66 C-49.359375 65.59765625 -49.359375 65.59765625 -52 65 C-52 64.67 -52 64.34 -52 64 C-58.93 63.505 -58.93 63.505 -66 63 C-66 62.67 -66 62.34 -66 62 C-64.99582031 61.97421875 -63.99164063 61.9484375 -62.95703125 61.921875 C-45.97432369 61.29752611 -30.05856018 56.63653039 -18 44 C-15.87635605 41.41251947 -13.89275443 38.76026687 -12 36 C-13.15173355 33.53199953 -14.04783565 31.95216435 -16 30 C-16.26991906 27.31160615 -16.08737357 24.70858064 -16 22 C-14.68 21.34 -13.36 20.68 -12 20 C-11.505 23.96 -11.505 23.96 -11 28 C-10.01 28.33 -9.02 28.66 -8 29 C-3.75648516 19.28202707 -0.93100534 10.58406072 0 0 Z " transform="translate(187,139)" style="fill: #C79758;"/><path d="M0 0 C3.41421039 2.11744522 6.11752386 4.63117558 8.87890625 7.51171875 C9.40395752 8.04845215 9.92900879 8.58518555 10.4699707 9.13818359 C13.83716612 12.60470478 17.09504586 16.14973863 20.23046875 19.828125 C23.02174162 23.08461002 25.9211967 26.24355804 28.80078125 29.421875 C31.1307008 32.03665697 33.36625234 34.71531777 35.5546875 37.44921875 C38.18268517 40.05500798 40.54836829 40.77886822 44.19140625 41.19921875 C49.41011225 40.67734815 53.6602181 39.23320456 57.3359375 35.3515625 C60.562788 30.52839019 60.69265795 25.45408088 59.94140625 19.82421875 C58.73738628 15.26799929 56.62099635 11.8138857 52.94140625 8.82421875 C50.14391784 7.89172261 48.39819744 7.68945723 45.50390625 7.69921875 C44.74207031 7.69664063 43.98023438 7.6940625 43.1953125 7.69140625 C40.93713284 7.73701582 40.93713284 7.73701582 38.84375 8.45703125 C36.94140625 8.82421875 36.94140625 8.82421875 33.94140625 6.82421875 C38.79770656 2.83511492 42.67383371 2.39197237 48.94140625 2.82421875 C55.41588849 5.284522 59.87669041 9.65162205 62.94140625 15.82421875 C63.82282447 22.38343935 64.2516568 29.66374465 60.75390625 35.51171875 C57.76429841 39.407525 54.64728406 42.25559281 49.94140625 43.82421875 C47.671875 44.0625 47.671875 44.0625 45.12890625 44.13671875 C43.88173828 44.19279297 43.88173828 44.19279297 42.609375 44.25 C35.82353585 43.16704763 31.39641502 37.41767176 27.00390625 32.57421875 C26.38346436 31.89963623 25.76302246 31.22505371 25.1237793 30.5300293 C20.56346567 25.5566155 16.09691357 20.50419058 11.70458984 15.38183594 C10.29564493 13.74747983 8.86975291 12.12912903 7.44140625 10.51171875 C7.00223877 9.99520752 6.56307129 9.47869629 6.1105957 8.9465332 C2.20584699 4.56996368 -1.6549512 2.38780891 -7.46484375 1.42578125 C-13.33585079 1.49150148 -18.18784299 2.26435575 -22.75390625 6.3359375 C-25.48474366 9.2712579 -27.26430668 11.78816536 -28.24609375 15.69921875 C-28.51421875 16.73046875 -28.78234375 17.76171875 -29.05859375 18.82421875 C-30.04859375 19.15421875 -31.03859375 19.48421875 -32.05859375 19.82421875 C-31.74557782 12.46834431 -28.54165939 7.30728439 -23.375 2.140625 C-16.86740759 -2.79954731 -7.43840535 -2.85946361 0 0 Z " transform="translate(112.05859375,107.17578125)" style="fill: #F7F4EB;"/><path d="M0 0 C-2.52572404 4.20954006 -4.42055218 7.06645536 -9 9 C-11.99260304 9.51388133 -14.97079219 9.80861214 -18 10 C-18.33 11.65 -18.66 13.3 -19 15 C-16.03 15.33 -13.06 15.66 -10 16 C-10.33 17.32 -10.66 18.64 -11 20 C-18.06515581 21.33994334 -18.06515581 21.33994334 -22.4375 19.75 C-25 18 -25 18 -26 15 C-25.0390625 12.5546875 -25.0390625 12.5546875 -23.625 9.875 C-23.16351563 8.98554687 -22.70203125 8.09609375 -22.2265625 7.1796875 C-21 5 -21 5 -20 4 C-17.98405418 3.76572222 -15.961526 3.58663876 -13.9375 3.4375 C-12.83277344 3.35371094 -11.72804687 3.26992187 -10.58984375 3.18359375 C-9.73519531 3.12300781 -8.88054687 3.06242187 -8 3 C-8 2.34 -8 1.68 -8 1 C-8.68707031 0.86722656 -9.37414062 0.73445313 -10.08203125 0.59765625 C-10.98308594 0.42105469 -11.88414062 0.24445313 -12.8125 0.0625 C-13.70582031 -0.11152344 -14.59914062 -0.28554687 -15.51953125 -0.46484375 C-18 -1 -18 -1 -21 -2 C-23.22574335 -2.22451458 -25.45581519 -2.40782878 -27.6875 -2.5625 C-29.45673828 -2.68818359 -29.45673828 -2.68818359 -31.26171875 -2.81640625 C-32.61716797 -2.90728516 -32.61716797 -2.90728516 -34 -3 C-34 -3.33 -34 -3.66 -34 -4 C-29.545 -4.495 -29.545 -4.495 -25 -5 C-26.64574566 -5.02688151 -28.29161413 -5.04634123 -29.9375 -5.0625 C-31.31228516 -5.07990234 -31.31228516 -5.07990234 -32.71484375 -5.09765625 C-34.96593327 -5.25949049 -34.96593327 -5.25949049 -36 -4 C-37.66617115 -3.95936168 -39.33388095 -3.957279 -41 -4 C-41 -4.66 -41 -5.32 -41 -6 C-42.98 -5.67 -44.96 -5.34 -47 -5 C-33.54303329 -13.97131114 -12.86729761 -6.29676266 0 0 Z " transform="translate(158,69)" style="fill: #C09257;"/><path d="M0 0 C0.12180522 13.67698647 0.12180522 13.67698647 -2.58984375 16.875 C-3.85616936 17.70367933 -5.12962372 18.52157281 -6.41015625 19.328125 C-9.9068692 23.00525803 -9.04992745 29.19270021 -9 34 C-12.45891239 34.86619126 -13.6539036 35.14126384 -17.0625 33.75 C-21.50494716 30.36363847 -22.91305685 25.28479255 -24 20 C-24.41286601 14.99863513 -24.24331416 10.00821642 -24 5 C-22.68 5 -21.36 5 -20 5 C-19.97421875 5.90621094 -19.9484375 6.81242188 -19.921875 7.74609375 C-19.58007518 15.08702161 -19.12991124 21.719418 -15 28 C-14.34 28.33 -13.68 28.66 -13 29 C-13.08121094 28.34773438 -13.16242188 27.69546875 -13.24609375 27.0234375 C-13.4493856 24.21054208 -13.49172453 21.78223623 -13 19 C-11.3809903 17.20676616 -9.65402883 16.0203435 -7.6796875 14.63671875 C-4.95633419 11.98303261 -4.86698624 8.93247124 -4.484375 5.26953125 C-3.98989175 2.95263794 -2.80746245 0 0 0 Z " transform="translate(120,159)" style="fill: #B58855;"/><path d="M0 0 C4.86823684 4.05686403 7.76386157 7.7914372 8.5234375 14.171875 C8.75386577 19.73760398 8.14883087 23.60021906 4.8671875 28.1796875 C1.04097961 32.19073635 -3.07483872 33.67956452 -8.5 34.3125 C-11.88783135 33.85644578 -13.31511169 33.21249278 -15.75 30.875 C-15.09 30.875 -14.43 30.875 -13.75 30.875 C-13.42 30.215 -13.09 29.555 -12.75 28.875 C-12.09 29.205 -11.43 29.535 -10.75 29.875 C-6.65231801 30.26900788 -4.23647243 30.10888098 -0.5 28.3125 C3.25276883 24.98618218 4.78842941 21.82107401 5.56640625 16.85546875 C5.87305302 11.68204099 4.5183941 8.77891517 1.25 4.875 C-0.69240558 2.71677158 -1.95387196 1.98274665 -4.828125 1.59375 C-9.57994001 1.40493616 -12.99068251 1.68527607 -16.75 4.875 C-19.07394075 8.08425151 -19.08057352 10.99076115 -18.75 14.875 C-18.09 15.865 -17.43 16.855 -16.75 17.875 C-13.285 17.38 -13.285 17.38 -9.75 16.875 C-11.07 16.215 -12.39 15.555 -13.75 14.875 C-12.76 14.875 -11.77 14.875 -10.75 14.875 C-10.75 14.215 -10.75 13.555 -10.75 12.875 C-8.31661348 11.33991972 -7.07875493 10.84411696 -4.171875 11.1171875 C-2.84929687 11.43042969 -2.84929687 11.43042969 -1.5 11.75 C-0.60796875 11.95367187 0.2840625 12.15734375 1.203125 12.3671875 C1.87859375 12.53476563 2.5540625 12.70234375 3.25 12.875 C2.09826645 15.34300047 1.20216435 16.92283565 -0.75 18.875 C-3.17578125 19.25390625 -3.17578125 19.25390625 -6.0625 19.4375 C-9.71201964 19.68146516 -13.17571915 20.0872259 -16.75 20.875 C-19.81671834 17.90411661 -21.09221866 15.64416301 -21.3125 11.4375 C-21.08555095 6.39418787 -19.39730199 4.27362231 -15.75 0.875 C-10.8185975 -2.09400934 -5.28300382 -2.16122883 0 0 Z " transform="translate(164.75,115.125)" style="fill: #C49859;"/><path d="M0 0 C6.32017518 3.81620747 11.33368116 9.48274666 13.6875 16.5 C15.9369261 25.95051095 15.2459191 35.23272647 10.43359375 43.79296875 C7.00660597 48.7700382 2.99809964 51.75893471 -2.3125 54.5625 C-2.6425 53.9025 -2.9725 53.2425 -3.3125 52.5625 C-6.9425 52.5625 -10.5725 52.5625 -14.3125 52.5625 C-14.3125 52.2325 -14.3125 51.9025 -14.3125 51.5625 C-13.44367188 51.46453125 -12.57484375 51.3665625 -11.6796875 51.265625 C-2.71225635 50.28791147 -2.71225635 50.28791147 4.6875 45.5625 C6.57597034 42.65994696 8.17845682 39.67678034 9.6875 36.5625 C10.1825 35.5725 10.1825 35.5725 10.6875 34.5625 C11.32035641 24.60718185 11.26990008 16.7370779 5.4375 8.3125 C0.12390578 2.99890578 -3.35549577 1.31904831 -10.8125 1.0625 C-16.55077134 1.22079714 -19.65842455 2.3248823 -24.3125 5.5625 C-25.3025 5.5625 -26.2925 5.5625 -27.3125 5.5625 C-19.30636747 -1.35188719 -10.51810862 -4.57945485 0 0 Z " transform="translate(168.3125,104.4375)" style="fill: #CCA168;"/><path d="M0 0 C5.91741739 4.11646427 10.45244386 9.40211038 14.9375 15 C18.95802228 19.99413307 23.20026374 24.73929754 27.5625 29.4375 C28.1922876 30.12392578 28.8220752 30.81035156 29.47094727 31.51757812 C36.35309278 38.90409064 36.35309278 38.90409064 45.75 41.75 C46.92175781 41.83507812 46.92175781 41.83507812 48.1171875 41.921875 C48.98730469 41.96054688 48.98730469 41.96054688 49.875 42 C49.875 42.33 49.875 42.66 49.875 43 C41.17205882 44.58235294 41.17205882 44.58235294 36.8125 42.625 C30.73626402 37.1951721 25.13153926 31.42146751 19.828125 25.23828125 C16.90912524 21.89310753 13.88937847 18.64166661 10.86962891 15.38745117 C8.57231192 12.89973268 6.35116101 10.37872748 4.21875 7.75 C0.76374731 3.69613017 -2.26710587 2.27524357 -7.5 1.5 C-12.28659186 2.16021957 -15.46899133 3.87217317 -19.125 7 C-21.4642155 10.39563541 -22.22032066 13.17013781 -22.625 17.1875 C-23.14092226 21.12140727 -23.33217426 21.60084384 -26.125 24 C-26.63425868 17.09671572 -26.33196442 11.69464459 -22.125 6 C-15.53397112 -0.73782239 -9.31164539 -2.97972653 0 0 Z " transform="translate(110.125,112)" style="fill: #F4EEE4;"/><path d="M0 0 C3.48035677 1.12644348 5.35722657 2.92807032 8.00390625 5.43359375 C8.88691406 6.25988281 9.76992187 7.08617188 10.6796875 7.9375 C11.67548828 8.89462891 11.67548828 8.89462891 12.69140625 9.87109375 C12.36140625 10.86109375 12.03140625 11.85109375 11.69140625 12.87109375 C7.08715483 13.12223474 3.73244543 13.03442304 -0.55859375 11.30859375 C-6.16827568 9.20619106 -11.48652073 10.05344221 -17.30859375 10.87109375 C-17.93359375 9.05859375 -17.93359375 9.05859375 -18.30859375 6.87109375 C-16.30859375 3.87109375 -16.30859375 3.87109375 -14.3203125 3.46484375 C-13.16982422 3.4184375 -13.16982422 3.4184375 -11.99609375 3.37109375 C-7.48907437 3.03937712 -4.1962529 -0.23430854 0 0 Z " transform="translate(156.30859375,74.12890625)" style="fill: #FAF9F5;"/><path d="M0 0 C3.17274985 1.47722069 5.88734135 3.30774992 8.75 5.3125 C19.38065843 12.08389014 30.61041289 14.55327412 43.0859375 14.56640625 C44.04757813 14.70949219 45.00921875 14.85257813 46 15 C47.18212891 17.02709961 47.18212891 17.02709961 48 19 C29.69761342 19.65691517 13.29762476 17.81856013 -1 5 C-0.67 3.35 -0.34 1.7 0 0 Z " transform="translate(90,187)" style="fill: #B18653;"/><path d="M0 0 C5.95243405 3.67083667 10.66268836 9.13707992 12.9921875 15.796875 C14.27494244 23.49340467 14.75698048 32.5696388 10.5625 39.40234375 C7.00886309 44.03702231 2.94609523 48.11302034 -2.64453125 49.9765625 C-4.53923941 50.045112 -6.43621465 50.06136622 -8.33203125 50.0390625 C-9.32589844 50.03003906 -10.31976563 50.02101562 -11.34375 50.01171875 C-12.48263672 49.99431641 -12.48263672 49.99431641 -13.64453125 49.9765625 C-13.64453125 49.6465625 -13.64453125 49.3165625 -13.64453125 48.9765625 C-12.99226562 48.86699219 -12.34 48.75742188 -11.66796875 48.64453125 C-3.14727311 47.09874133 2.0916729 45.23206488 7.35546875 37.9765625 C11.1724529 31.38948549 11.35526144 25.4340326 10.35546875 17.9765625 C8.36449116 12.56844606 5.62360317 8.37023812 0.60546875 5.4140625 C-0.46703125 4.9396875 -1.53953125 4.4653125 -2.64453125 3.9765625 C-3.30453125 3.6465625 -3.96453125 3.3165625 -4.64453125 2.9765625 C-9.88180065 2.71469903 -13.70668473 3.00142389 -18.64453125 4.9765625 C-18.64453125 3.3265625 -18.64453125 1.6765625 -18.64453125 -0.0234375 C-12.74678363 -1.98935337 -5.84206984 -2.26088966 0 0 Z " transform="translate(166.64453125,106.0234375)" style="fill: #F7F3EB;"/><path d="M0 0 C0 0.66 0 1.32 0 2 C-0.97839844 2.14695312 -0.97839844 2.14695312 -1.9765625 2.296875 C-8.85670308 3.4740082 -13.39939902 5.18268227 -18.25 10.4375 C-22.13184718 16.12163337 -22.81871182 21.2119463 -22 28 C-20.14808851 34.28762765 -16.25201398 38.26149744 -11 42 C-6.72841916 44.13579042 -1.99005885 43.27001605 2.4375 42.0625 C7.53165727 39.65692573 11.23541968 35.071893 15 31 C15 34.98646486 13.71096043 35.72190942 10.9375 38.5 C5.77846443 43.44977672 1.82819835 45.99078012 -5.4375 46.5 C-11.74763557 46.27386886 -16.03077028 43.02245215 -20.3125 38.625 C-25.09138153 31.19118429 -26.3644724 24.51535573 -24.53125 15.76171875 C-22.41552304 9.27600813 -18.55456441 4.49417918 -12.6875 1.0625 C-8.31781053 -0.19656307 -4.5072259 -0.27595261 0 0 Z " transform="translate(107,108)" style="fill: #B28B5D;"/><path d="M0 0 C3.41421039 2.11744522 6.11752386 4.63117558 8.87890625 7.51171875 C9.40395752 8.04845215 9.92900879 8.58518555 10.4699707 9.13818359 C13.83077564 12.59812579 17.09329177 16.12781994 20.203125 19.81640625 C21.55794541 21.38129994 22.96814972 22.89830016 24.3984375 24.39453125 C25.65720703 25.72097656 25.65720703 25.72097656 26.94140625 27.07421875 C27.72515625 27.88375 28.50890625 28.69328125 29.31640625 29.52734375 C30.94140625 31.82421875 30.94140625 31.82421875 30.69140625 34.12109375 C30.44390625 34.683125 30.19640625 35.24515625 29.94140625 35.82421875 C20.3835155 25.36246308 20.3835155 25.36246308 16.50390625 20.88671875 C15.95863281 20.26539062 15.41335937 19.6440625 14.8515625 19.00390625 C13.79198435 17.79481707 12.73471286 16.58365307 11.68701172 15.36425781 C10.28363221 13.73603846 8.86369963 12.12342575 7.44140625 10.51171875 C7.00256104 9.99552979 6.56371582 9.47934082 6.11157227 8.94750977 C2.20621736 4.57060823 -1.65419053 2.38793487 -7.46484375 1.42578125 C-13.33585079 1.49150148 -18.18784299 2.26435575 -22.75390625 6.3359375 C-25.48474366 9.2712579 -27.26430668 11.78816536 -28.24609375 15.69921875 C-28.51421875 16.73046875 -28.78234375 17.76171875 -29.05859375 18.82421875 C-30.04859375 19.15421875 -31.03859375 19.48421875 -32.05859375 19.82421875 C-31.74557782 12.46834431 -28.54165939 7.30728439 -23.375 2.140625 C-16.86740759 -2.79954731 -7.43840535 -2.85946361 0 0 Z " transform="translate(112.05859375,107.17578125)" style="fill: #F0EAE0;"/><path d="M0 0 C7.3022174 6.49791519 10.0836166 18.79279482 12 28 C12.06272633 30.33249005 12.07990235 32.66803515 12 35 C10.35 34.67 8.7 34.34 7 34 C6.80664062 32.92621094 6.61328125 31.85242188 6.4140625 30.74609375 C6.15122282 29.30986267 5.88819176 27.8736666 5.625 26.4375 C5.49867188 25.73302734 5.37234375 25.02855469 5.2421875 24.30273438 C4.40718633 19.77285303 3.33276044 15.40969867 2 11 C-0.64 11.33 -3.28 11.66 -6 12 C-6.66 10.68 -7.32 9.36 -8 8 C-6.02 7.34 -4.04 6.68 -2 6 C-2 5.01 -2 4.02 -2 3 C-1.34 3 -0.68 3 0 3 C0 2.01 0 1.02 0 0 Z " transform="translate(180,92)" style="fill: #CF9B5F;"/><path d="M0 0 C3.40091545 2.52960653 5.69167766 5.82070529 7.890625 9.40625 C8.26574219 10.01082031 8.64085937 10.61539063 9.02734375 11.23828125 C11.28485586 16.90759899 10.86804976 24.38234214 9.015625 30.11328125 C6.3173525 35.32343242 2.58659232 38.95532301 -2.109375 42.40625 C-2.439375 41.74625 -2.769375 41.08625 -3.109375 40.40625 C-4.594375 39.91125 -4.594375 39.91125 -6.109375 39.40625 C-4.748125 38.8184375 -4.748125 38.8184375 -3.359375 38.21875 C1.18898346 35.68216547 3.97601876 32.22549392 5.890625 27.40625 C6.283806 23.87549298 6.283806 23.87549298 6.265625 20.03125 C6.30816406 18.10152344 6.30816406 18.10152344 6.3515625 16.1328125 C5.82446469 11.87136071 4.42667001 9.80434984 1.890625 6.40625 C1.890625 5.74625 1.890625 5.08625 1.890625 4.40625 C0.56723868 3.72004969 -0.76887448 3.05838539 -2.109375 2.40625 C-2.8725 2.035 -3.635625 1.66375 -4.421875 1.28125 C-9.15607369 -0.26011701 -12.8956738 0.01613176 -17.609375 1.53125 C-21.64283702 3.69203322 -24.78962491 6.28830843 -28.109375 9.40625 C-26.68307192 6.07575878 -24.95923104 4.08886063 -22.234375 1.71875 C-21.55632812 1.11675781 -20.87828125 0.51476562 -20.1796875 -0.10546875 C-14.13936798 -4.44766071 -6.20788845 -3.4216708 0 0 Z " transform="translate(168.109375,110.59375)" style="fill: #C59D64;"/><path d="M0 0 C0.9075 0.00257813 1.815 0.00515625 2.75 0.0078125 C4.11125 0.00394531 4.11125 0.00394531 5.5 0 C7.75 0.1328125 7.75 0.1328125 8.75 1.1328125 C8.82271741 3.48594805 8.83370868 5.84114918 8.8125 8.1953125 C8.80347656 9.48566406 8.79445312 10.77601563 8.78515625 12.10546875 C8.77355469 13.10449219 8.76195312 14.10351562 8.75 15.1328125 C4.79 15.1328125 0.83 15.1328125 -3.25 15.1328125 C-3.27685412 12.82037458 -3.29632841 10.5078498 -3.3125 8.1953125 C-3.32410156 6.90753906 -3.33570312 5.61976563 -3.34765625 4.29296875 C-3.22086861 0.19012072 -3.22086861 0.19012072 0 0 Z " transform="translate(127.25,155.8671875)" style="fill: #BB8B52;"/><path d="M0 0 C1.29005949 3.99560092 0.67553523 6.41888078 -0.83984375 10.24609375 C-2.76161855 13.15140313 -5.75175713 13.2322335 -9 14 C-10.36784258 16.25141979 -10.36784258 16.25141979 -11 19 C-11.98482022 21.00751815 -12.98152514 23.00934459 -14 25 C-15.65 24.67 -17.3 24.34 -19 24 C-17.95371094 21.88631518 -16.88938551 19.7855316 -15.8125 17.6875 C-15.22082031 16.51574219 -14.62914063 15.34398437 -14.01953125 14.13671875 C-11.92482102 10.88323265 -10.48523081 9.58004735 -7 8 C-6.34 8 -5.68 8 -5 8 C-5 6.68 -5 5.36 -5 4 C-8.3 3.67 -11.6 3.34 -15 3 C-10.36448354 -2.0990681 -6.24233323 -1.11513526 0 0 Z " transform="translate(125,73)" style="fill: #B68A59;"/><path d="M0 0 C0.67417969 0.15339844 1.34835938 0.30679688 2.04296875 0.46484375 C5.46877952 1.08483857 8.83893447 1.3352574 12.3125 1.5625 C13.56675781 1.64628906 14.82101563 1.73007813 16.11328125 1.81640625 C17.54220703 1.90728516 17.54220703 1.90728516 19 2 C19 2.33 19 2.66 19 3 C18.0925 3.144375 17.185 3.28875 16.25 3.4375 C15.1775 3.623125 14.105 3.80875 13 4 C12.3090625 4.0928125 11.618125 4.185625 10.90625 4.28125 C8.83620434 4.82945268 8.83620434 4.82945268 7.953125 6.84765625 C7.72109375 7.57855469 7.4890625 8.30945313 7.25 9.0625 C7.00765625 9.79597656 6.7653125 10.52945313 6.515625 11.28515625 C6.34546875 11.85105469 6.1753125 12.41695312 6 13 C5.34 13 4.68 13 4 13 C3.67 12.34 3.34 11.68 3 11 C2.01 11.495 2.01 11.495 1 12 C1 10.35 1 8.7 1 7 C-0.32 7 -1.64 7 -3 7 C-3 8.32 -3 9.64 -3 11 C-3.66 11 -4.32 11 -5 11 C-5 10.01 -5 9.02 -5 8 C-6.670625 8.2784375 -6.670625 8.2784375 -8.375 8.5625 C-12 9 -12 9 -14 8 C-13.67 7.34 -13.34 6.68 -13 6 C-12.01 6 -11.02 6 -10 6 C-10.99 5.34 -11.98 4.68 -13 4 C-12.67 3.01 -12.34 2.02 -12 1 C-6.25 1.75 -6.25 1.75 -4 4 C-1.89179203 3.6814823 -1.89179203 3.6814823 0 3 C0 2.01 0 1.02 0 0 Z " transform="translate(113,204)" style="fill: #F0EBE1;"/><path d="M0 0 C1.65 0 3.3 0 5 0 C4.23592884 11.90897115 1.31801086 22.32193867 -4 33 C-5.98 32.34 -7.96 31.68 -10 31 C-9.2575 29.96875 -8.515 28.9375 -7.75 27.875 C-2.58106599 19.60764247 -0.66335834 9.61869587 0 0 Z " transform="translate(187,139)" style="fill: #D09B5C;"/><path d="M0 0 C2.67965306 1.38304674 3.57051271 2.26602543 4.9375 5 C5.6048225 8.81534384 5.81158182 12.35936231 3.953125 15.84765625 C1.04119677 19.5055414 -1.82246074 21.7195398 -6.46484375 22.30078125 C-11.49439487 22.32403033 -14.96075379 22.28139696 -19.0625 19 C-18.7325 17.68 -18.4025 16.36 -18.0625 15 C-17.44375 15.66 -16.825 16.32 -16.1875 17 C-11.83412574 19.78615952 -8.10802744 19.84506371 -3.0625 19 C-0.12826805 17.20353146 1.40955355 16.0558929 2.9375 13 C3.27842041 7.67032792 3.27842041 7.67032792 0.9375 3 C-0.0525 2.67 -1.0425 2.34 -2.0625 2 C-1.4025 3.32 -0.7425 4.64 -0.0625 6 C-2.0425 6.99 -2.0425 6.99 -4.0625 8 C-3.7325 8.33 -3.4025 8.66 -3.0625 9 C-2.70087971 10.32594105 -2.36521961 11.65938457 -2.0625 13 C-1.4025 11.02 -0.7425 9.04 -0.0625 7 C0.2675 7 0.5975 7 0.9375 7 C1.25 9.8125 1.25 9.8125 0.9375 13 C-1.5625 14.875 -1.5625 14.875 -4.0625 16 C-4.454375 15.525625 -4.84625 15.05125 -5.25 14.5625 C-7.47058374 12.64820367 -9.19625709 12.38733012 -12.0625 12 C-10.81370909 8.25362727 -8.90454893 6.70986061 -6.0625 4 C-5.381875 3.21625 -4.70125 2.4325 -4 1.625 C-2.0625 0 -2.0625 0 0 0 Z " transform="translate(111.0625,126)" style="fill: #B6966B;"/><path d="M0 0 C0 0.33 0 0.66 0 1 C-1.85625 1.37125 -1.85625 1.37125 -3.75 1.75 C-7.52401107 2.68515319 -9.55495822 3.87034653 -12 7 C-13.38550197 9.77100394 -13.1877467 11.9334706 -13 15 C-12.34 15.99 -11.68 16.98 -11 18 C-7.535 17.505 -7.535 17.505 -4 17 C-5.32 16.34 -6.64 15.68 -8 15 C-7.01 15 -6.02 15 -5 15 C-5 14.34 -5 13.68 -5 13 C-2.56661348 11.46491972 -1.32875493 10.96911696 1.578125 11.2421875 C2.90070313 11.55542969 2.90070313 11.55542969 4.25 11.875 C5.14203125 12.07867187 6.0340625 12.28234375 6.953125 12.4921875 C7.62859375 12.65976563 8.3040625 12.82734375 9 13 C7.84826645 15.46800047 6.95216435 17.04783565 5 19 C2.57421875 19.37890625 2.57421875 19.37890625 -0.3125 19.5625 C-3.96201964 19.80646516 -7.42571915 20.2122259 -11 21 C-14.06671834 18.02911661 -15.34221866 15.76916301 -15.5625 11.5625 C-15.33555095 6.51918787 -13.64730199 4.39862231 -10 1 C-6.55702039 -1.55446874 -4.06731667 -0.92439015 0 0 Z " transform="translate(159,115)" style="fill: #C8AD85;"/><path d="M0 0 C3.37017533 0.30260377 4.77849436 0.79176953 7.28125 3.14453125 C8.0134375 4.02496094 8.745625 4.90539062 9.5 5.8125 C15.88740243 13.42565395 20.94092797 16.69527275 30.875 17.625 C32.58280131 17.75706997 34.29100181 17.88444496 36 18 C36 18.66 36 19.32 36 20 C30.04810971 21.98396343 23.81078984 21.61371419 18.03515625 19.16796875 C11.04127648 15.15420666 4.73452076 8.48522779 0 2 C0 1.34 0 0.68 0 0 Z " transform="translate(129,139)" style="fill: #BF9257;"/><path d="M0 0 C0 0.66 0 1.32 0 2 C-0.97839844 2.14695312 -0.97839844 2.14695312 -1.9765625 2.296875 C-8.85670308 3.4740082 -13.39939902 5.18268227 -18.25 10.4375 C-21.33340772 14.95248987 -22.26708605 18.88413837 -22.625 24.3125 C-22.69976562 25.38113281 -22.77453125 26.44976562 -22.8515625 27.55078125 C-22.90054688 28.35902344 -22.94953125 29.16726562 -23 30 C-23.66 29.67 -24.32 29.34 -25 29 C-25.44481543 20.03779273 -24.87308486 13.38925842 -19.25 6.1875 C-13.73261254 0.24986927 -7.70774287 -0.47190262 0 0 Z " transform="translate(107,108)" style="fill: #AE834E;"/><path d="M0 0 C3.4610078 0.2192655 6.91756281 0.48058931 10.375 0.75 C11.35984375 0.811875 12.3446875 0.87375 13.359375 0.9375 C14.30039063 1.01484375 15.24140625 1.0921875 16.2109375 1.171875 C17.08024902 1.2347168 17.94956055 1.29755859 18.84521484 1.36230469 C21 2 21 2 22.29931641 4.05175781 C22.53054199 4.69467773 22.76176758 5.33759766 23 6 C19.72924117 6.0580476 16.45861476 6.09361165 13.1875 6.125 C12.25873047 6.14175781 11.32996094 6.15851563 10.37304688 6.17578125 C9.48037109 6.18222656 8.58769531 6.18867188 7.66796875 6.1953125 C6.84578857 6.20578613 6.0236084 6.21625977 5.17651367 6.22705078 C3 6 3 6 0 4 C0.66 4 1.32 4 2 4 C2 3.34 2 2.68 2 2 C1.34 2 0.68 2 0 2 C0 1.34 0 0.68 0 0 Z " transform="translate(115,200)" style="fill: #B9925D;"/><path d="M0 0 C1 3 1 3 0.5 5.3125 C-0.08602891 8.46240537 0.34806642 10.88520622 1 14 C-1 13 -1 13 -2 10 C-4.03241727 10.63979849 -4.03241727 10.63979849 -6 12 C-6.81171228 14.55519921 -6.81171228 14.55519921 -7 17 C-5.20800528 17.78282648 -5.20800528 17.78282648 -3 18 C-0.75244247 16.6483633 -0.75244247 16.6483633 1 15 C1.66 15.33 2.32 15.66 3 16 C-1.26243568 19.89708405 -1.26243568 19.89708405 -4.6875 20.375 C-7 20 -7 20 -9 18 C-9.40047444 15.67724823 -9.7397104 13.34260643 -10 11 C-9.01 11 -8.02 11 -7 11 C-6.67 9.68 -6.34 8.36 -6 7 C-8.475 6.01 -8.475 6.01 -11 5 C-11 4.34 -11 3.68 -11 3 C-9.1128125 3.0928125 -9.1128125 3.0928125 -7.1875 3.1875 C-3.83041021 3.23632922 -3.83041021 3.23632922 -1 1.5 C-0.67 1.005 -0.34 0.51 0 0 Z " transform="translate(138,96)" style="fill: #C4A77D;"/><path d="M0 0 C2.475 0.99 2.475 0.99 5 2 C4.34 3.98 3.68 5.96 3 8 C1.68 8 0.36 8 -1 8 C-3.2773501 10.81509993 -3.2773501 10.81509993 -3 14 C-4.32 13.67 -5.64 13.34 -7 13 C-6.34 14.65 -5.68 16.3 -5 18 C-5.94875 17.649375 -6.8975 17.29875 -7.875 16.9375 C-10.87060172 15.64973223 -10.87060172 15.64973223 -13 17 C-11.6284197 14.04582705 -10.13179822 11.47288594 -8 9 C-7.01 8.67 -6.02 8.34 -5 8 C-3.55129381 6.14195683 -3.55129381 6.14195683 -2.3125 3.9375 C-1.87550781 3.20402344 -1.43851563 2.47054687 -0.98828125 1.71484375 C-0.66214844 1.14894531 -0.33601562 0.58304688 0 0 Z " transform="translate(187,174)" style="fill: #DECCB0;"/><path d="M0 0 C1.31538327 4.15771494 0.34433068 6.8879297 -1 11 C-1.33 10.34 -1.66 9.68 -2 9 C-3.32 9.33 -4.64 9.66 -6 10 C-6.33 9.34 -6.66 8.68 -7 8 C-6.34 8 -5.68 8 -5 8 C-5 6.68 -5 5.36 -5 4 C-8.3 3.67 -11.6 3.34 -15 3 C-10.36448354 -2.0990681 -6.24233323 -1.11513526 0 0 Z " transform="translate(125,73)" style="fill: #B9915E;"/><path d="M0 0 C10.05022416 9.16646212 10.05022416 9.16646212 11.97265625 12.6171875 C11.53100586 14.72192383 11.53100586 14.72192383 10.97265625 16.6171875 C10.60503174 16.20355957 10.23740723 15.78993164 9.85864258 15.36376953 C8.17652507 13.481595 6.48108815 11.61192041 4.78515625 9.7421875 C4.20701172 9.09121094 3.62886719 8.44023438 3.03320312 7.76953125 C-2.53100111 1.67091192 -6.96817411 0.43676407 -15.02734375 -0.3828125 C-15.02734375 -0.7128125 -15.02734375 -1.0428125 -15.02734375 -1.3828125 C-4.40332685 -3.00342525 -4.40332685 -3.00342525 0 0 Z " transform="translate(114.02734375,111.3828125)" style="fill: #B48A57;"/><path d="M0 0 C1.875 0.3125 1.875 0.3125 4 1 C6.51250583 4.76875875 6.53016086 6.53150134 6 11 C4.54006686 13.32978877 2.93880985 15.0127199 1 17 C0.34 16.67 -0.32 16.34 -1 16 C-1 13 -1 13 0 12 C-0.33 12 -0.66 12 -1 12 C-1 10.35 -1 8.7 -1 7 C-1.99 6.67 -2.98 6.34 -4 6 C-2.68 5.67 -1.36 5.34 0 5 C0 4.01 0 3.02 0 2 C0 1.34 0 0.68 0 0 Z " transform="translate(109,128)" style="fill: #FAF9F5;"/><path d="M0 0 C1.32 0 2.64 0 4 0 C4.19421438 2.95803435 4.38066186 5.91620163 4.5625 8.875 C4.61857422 9.71675781 4.67464844 10.55851563 4.73242188 11.42578125 C4.78076172 12.23144531 4.82910156 13.03710938 4.87890625 13.8671875 C4.9260376 14.61081543 4.97316895 15.35444336 5.02172852 16.12060547 C5 18 5 18 4 20 C3.34 20 2.68 20 2 20 C-0.1103435 15.72115394 -0.24128739 11.86135858 -0.125 7.1875 C-0.11597656 6.49462891 -0.10695313 5.80175781 -0.09765625 5.08789062 C-0.07426157 3.39177605 -0.03839641 1.69584129 0 0 Z " transform="translate(96,164)" style="fill: #AF834E;"/><path d="M0 0 C0.66 0.33 1.32 0.66 2 1 C-0.10034847 2.65091584 -2.20495833 4.29581238 -4.3125 5.9375 C-4.90740234 6.40607422 -5.50230469 6.87464844 -6.11523438 7.35742188 C-11.22296405 11.32375944 -14.40709382 12.16814177 -20.8125 12.25 C-22.61654297 12.28867188 -22.61654297 12.28867188 -24.45703125 12.328125 C-28.28988045 11.9731533 -30.69715027 10.92202587 -34 9 C-33.34 8.01 -32.68 7.02 -32 6 C-31.29230469 6.4846875 -30.58460937 6.969375 -29.85546875 7.46875 C-25.0378917 10.05218393 -20.32712463 9.71558391 -15 9 C-9.34187001 7.03059564 -4.45539558 4.00985602 0 0 Z " transform="translate(123,147)" style="fill: #B18A5C;"/><path d="M0 0 C0.69416016 -0.00386719 1.38832031 -0.00773437 2.10351562 -0.01171875 C5.84083371 -0.00462033 9.30460894 0.23271097 12.9375 1.125 C8.73142072 4.34966078 6.65364641 5.24960635 1.3125 5.1875 C0.30960938 5.17847656 -0.69328125 5.16945313 -1.7265625 5.16015625 C-2.49742188 5.14855469 -3.26828125 5.13695313 -4.0625 5.125 C-4.0625 4.795 -4.0625 4.465 -4.0625 4.125 C0.3925 3.63 0.3925 3.63 4.9375 3.125 C3.29175434 3.09811849 1.64588587 3.07865877 0 3.0625 C-1.37478516 3.04509766 -1.37478516 3.04509766 -2.77734375 3.02734375 C-5.02843327 2.86550951 -5.02843327 2.86550951 -6.0625 4.125 C-7.72867115 4.16563832 -9.39638095 4.167721 -11.0625 4.125 C-11.0625 3.465 -11.0625 2.805 -11.0625 2.125 C-13.0425 2.455 -15.0225 2.785 -17.0625 3.125 C-11.82423005 -0.36717997 -6.13176387 -0.03435162 0 0 Z " transform="translate(128.0625,60.875)" style="fill: #BE9664;"/><path d="M0 0 C1.32 0.66 2.64 1.32 4 2 C2.68 2 1.36 2 0 2 C0 3.65 0 5.3 0 7 C0.99 7.33 1.98 7.66 3 8 C3 8.66 3 9.32 3 10 C2.01 10.33 1.02 10.66 0 11 C-0.33 11.66 -0.66 12.32 -1 13 C-0.34 13.33 0.32 13.66 1 14 C0.071875 13.835 -0.85625 13.67 -1.8125 13.5 C-4.95621353 12.92251612 -4.95621353 12.92251612 -8 13 C-7.62472519 7.62106101 -6.00517004 5.51673467 -2 2 C-1.34 1.34 -0.68 0.68 0 0 Z " transform="translate(196,148)" style="fill: #F2EADE;"/><path d="M0 0 C5.75 0.75 5.75 0.75 8 3 C8.66 2.67 9.32 2.34 10 2 C10 2.99 10 3.98 10 5 C11.32 5 12.64 5 14 5 C14 6.98 14 8.96 14 11 C13.67 11 13.34 11 13 11 C13 9.35 13 7.7 13 6 C11.68 6 10.36 6 9 6 C9 7.32 9 8.64 9 10 C8.34 10 7.68 10 7 10 C7 9.01 7 8.02 7 7 C5.329375 7.2784375 5.329375 7.2784375 3.625 7.5625 C0 8 0 8 -2 7 C-1.67 6.34 -1.34 5.68 -1 5 C-0.01 5 0.98 5 2 5 C1.01 4.34 0.02 3.68 -1 3 C-0.67 2.01 -0.34 1.02 0 0 Z " transform="translate(101,205)" style="fill: #CEBDA5;"/><path d="M0 0 C0.66 0 1.32 0 2 0 C3.69140625 2.3359375 3.69140625 2.3359375 5.5625 5.375 C6.49255859 6.87160156 6.49255859 6.87160156 7.44140625 8.3984375 C8.34335784 9.90395068 9.21513229 11.43026458 10 13 C11.14814997 10.70370006 11.30769809 8.92301914 11.5625 6.375 C11.64628906 5.55773438 11.73007813 4.74046875 11.81640625 3.8984375 C11.87699219 3.27195313 11.93757812 2.64546875 12 2 C12.66 2 13.32 2 14 2 C13.88590318 4.10478604 13.75834639 6.20884577 13.625 8.3125 C13.55539063 9.48425781 13.48578125 10.65601563 13.4140625 11.86328125 C13 15 13 15 11 18 C8.36 13.71 5.72 9.42 3 5 C2.67 6.98 2.34 8.96 2 11 C1.34 11 0.68 11 0 11 C0 7.37 0 3.74 0 0 Z " transform="translate(129,40)" style="fill: #C5A67A;"/><path d="M0 0 C0.66 0.66 1.32 1.32 2 2 C0.73046875 3.46484375 -0.5390625 4.9296875 -1.80859375 6.39453125 C-4.59524259 10.14965477 -4.38502658 14.5284413 -4 19 C-3.36562656 20.6792238 -2.70710678 22.35008418 -2 24 C-2.33 24.99 -2.66 25.98 -3 27 C-7.21027707 22.26343829 -7.66009925 18.25988799 -7.46484375 11.98828125 C-6.77802445 7.57301433 -4.98426191 4.30077453 -2 1 C-1.34 0.67 -0.68 0.34 0 0 Z " transform="translate(94,116)" style="fill: #AF8753;"/><path d="M0 0 C3.42592357 1.64067165 5.32054343 3.02573702 7.44140625 6.20703125 C4.44140625 6.20703125 4.44140625 6.20703125 1.56640625 4.20703125 C-3.70986472 1.06372088 -9.63047398 1.43055209 -15.55859375 2.20703125 C-18.24921625 3.27226064 -20.16042159 4.53873757 -22.55859375 6.20703125 C-23.54859375 6.20703125 -24.53859375 6.20703125 -25.55859375 6.20703125 C-17.75708185 -0.53063812 -10.49555657 -3.25282135 0 0 Z " transform="translate(166.55859375,103.79296875)" style="fill: #C29C63;"/><path d="M0 0 C2.375 -0.125 2.375 -0.125 5 0 C7 2 7 2 7.1953125 3.9453125 C7.13020833 5.96354167 7.06510417 7.98177083 7 10 C5.00045254 10.04254356 2.99958364 10.04080783 1 10 C0 9 0 9 -0.09765625 6.93359375 C-0.08605469 6.10988281 -0.07445312 5.28617188 -0.0625 4.4375 C-0.05347656 3.61121094 -0.04445312 2.78492188 -0.03515625 1.93359375 C-0.02355469 1.29550781 -0.01195312 0.65742188 0 0 Z " transform="translate(196,135)" style="fill: #D5BD93;"/><path d="M0 0 C2.35716404 2.15454249 3.78966144 4.19719874 5.1875 7.0625 C5.53167969 7.75472656 5.87585938 8.44695312 6.23046875 9.16015625 C7 11 7 11 7 13 C0.07 12.505 0.07 12.505 -7 12 C-6.01 13.32 -5.02 14.64 -4 16 C-4 16.66 -4 17.32 -4 18 C-7.75376152 16.74874616 -8.24073289 15.4347596 -10 12 C-10 11.34 -10 10.68 -10 10 C-8.41676312 9.972807 -6.83338938 9.95351694 -5.25 9.9375 C-3.92742187 9.92009766 -3.92742187 9.92009766 -2.578125 9.90234375 C-0.2181162 9.99173802 1.74498524 10.33087179 4 11 C3.71125 10.45730469 3.4225 9.91460937 3.125 9.35546875 C2.75375 8.64003906 2.3825 7.92460938 2 7.1875 C1.443125 6.12595703 1.443125 6.12595703 0.875 5.04296875 C0 3 0 3 0 0 Z " transform="translate(80,59)" style="fill: #B5946A;"/><path d="M0 0 C0.99 0.33 1.98 0.66 3 1 C4.1875 4.0625 4.1875 4.0625 5 7 C3.25 8.5625 3.25 8.5625 1 10 C-1.25 9.6875 -1.25 9.6875 -3 9 C-3.75 7.3125 -3.75 7.3125 -4 5 C-2.0625 2.25 -2.0625 2.25 0 0 Z " transform="translate(134,105)" style="fill: #F9F7F2;"/><path d="M0 0 C2.76276177 0.52268466 5.3260876 1.10869587 8 2 C8 4.64 8 7.28 8 10 C6.02 10 4.04 10 2 10 C2 7.36 2 4.72 2 2 C1.34 2 0.68 2 0 2 C0 1.34 0 0.68 0 0 Z " transform="translate(125,146)" style="fill: #D5C8AF;"/><path d="M0 0 C1.32 0.66 2.64 1.32 4 2 C3.071875 2.53625 2.14375 3.0725 1.1875 3.625 C-2.37322569 6.27808973 -3.48941933 7.86577922 -5 12 C-5.19806338 13.39172532 -5.36393607 14.78835202 -5.5 16.1875 C-6.01592226 20.12140727 -6.20717426 20.60084384 -9 23 C-9.57295281 15.23330638 -8.80875756 9.43455908 -3.62109375 3.39453125 C-2.46116925 2.21477898 -1.23655936 1.09916387 0 0 Z " transform="translate(93,113)" style="fill: #EBE4D8;"/><path d="M0 0 C0.99 0.33 1.98 0.66 3 1 C5.22574335 1.22451458 7.45581519 1.40782878 9.6875 1.5625 C10.86699219 1.64628906 12.04648438 1.73007813 13.26171875 1.81640625 C14.61716797 1.90728516 14.61716797 1.90728516 16 2 C16 2.66 16 3.32 16 4 C13.32344199 5.33827901 11.17565948 5.20578556 8.1875 5.25 C7.14980469 5.27578125 6.11210937 5.3015625 5.04296875 5.328125 C1.63848364 4.96101749 -0.22392285 3.9499248 -3 2 C-2.01 1.34 -1.02 0.68 0 0 Z " transform="translate(149,149)" style="fill: #C28D4A;"/><path d="M0 0 C4.24186602 1.51495215 5.88113905 4.12759895 8 8 C9.44114295 13.76457182 8.76048491 19.18521536 8 25 C7.67 25 7.34 25 7 25 C6.87044922 23.515 6.87044922 23.515 6.73828125 22 C5.94494322 14.18433446 4.79441531 8.43461002 0 2 C0 1.34 0 0.68 0 0 Z " transform="translate(173,110)" style="fill: #D0A46D;"/><path d="M0 0 C0.33 2.31 0.66 4.62 1 7 C-0.65 7.66 -2.3 8.32 -4 9 C-6 6 -6 6 -5.6875 3.375 C-4.54746733 -0.56329467 -4.48644182 0 0 0 Z " transform="translate(158,205)" style="fill: #DACAB0;"/><path d="M0 0 C1.65 0.33 3.3 0.66 5 1 C5 1.99 5 2.98 5 4 C4.34 4 3.68 4 3 4 C3 4.66 3 5.32 3 6 C3.99 5.67 4.98 5.34 6 5 C6 6.65 6 8.3 6 10 C5.34 10 4.68 10 4 10 C4 9.34 4 8.68 4 8 C2.35 7.67 0.7 7.34 -1 7 C-1.33 5.35 -1.66 3.7 -2 2 C-1.34 2 -0.68 2 0 2 C0 1.34 0 0.68 0 0 Z " transform="translate(87,198)" style="fill: #CAB99C;"/><path d="M0 0 C2.5867822 2.06942576 3.4409112 3.75728494 4 7 C4.66 5.02 5.32 3.04 6 1 C6.33 1 6.66 1 7 1 C7.3125 3.8125 7.3125 3.8125 7 7 C4.5 8.875 4.5 8.875 2 10 C1.608125 9.525625 1.21625 9.05125 0.8125 8.5625 C-1.40808374 6.64820367 -3.13375709 6.38733012 -6 6 C-4.90218919 2.70656758 -3.7827394 0 0 0 Z " transform="translate(105,132)" style="fill: #C0A684;"/><path d="M0 0 C0.98613281 0.20882812 1.97226563 0.41765625 2.98828125 0.6328125 C3.98214844 0.83648437 4.97601563 1.04015625 6 1.25 C6.75925781 1.41757813 7.51851562 1.58515625 8.30078125 1.7578125 C7.97078125 2.7478125 7.64078125 3.7378125 7.30078125 4.7578125 C1.77110184 5.46814681 -3.19904911 6.06048426 -8.69921875 4.7578125 C-7.70921875 4.4278125 -6.71921875 4.0978125 -5.69921875 3.7578125 C-5.69921875 3.0978125 -5.69921875 2.4378125 -5.69921875 1.7578125 C-2.69921875 -0.2421875 -2.69921875 -0.2421875 0 0 Z " transform="translate(159.69921875,126.2421875)" style="fill: #D7C8A6;"/><path d="M0 0 C2.90802461 2.21928194 4.95312762 3.92969143 7 7 C7.125 9.6875 7.125 9.6875 7 12 C5.25 11.875 5.25 11.875 3 11 C0.75 7.9375 0.75 7.9375 -1 5 C-0.67 4.34 -0.34 3.68 0 3 C0 2.01 0 1.02 0 0 Z " transform="translate(173,83)" style="fill: #CD9859;"/><path d="M0 0 C0 3 0 3 -1 5 C0.32 4.67 1.64 4.34 3 4 C3.99 5.65 4.98 7.3 6 9 C5.34 9 4.68 9 4 9 C3.67 9.99 3.34 10.98 3 12 C-0.53586014 8.82679218 -2.58578031 6.83256305 -3 2 C-2.01 1.34 -1.02 0.68 0 0 Z " transform="translate(66,174)" style="fill: #CABCA6;"/><path d="M0 0 C0.98248524 4.0527516 1.08159574 7.83861737 1 12 C-0.65 11.67 -2.3 11.34 -4 11 C-3.8864371 9.35333797 -3.75882619 7.70763918 -3.625 6.0625 C-3.55539063 5.14597656 -3.48578125 4.22945313 -3.4140625 3.28515625 C-3.27742187 2.53105469 -3.14078125 1.77695313 -3 1 C-1 0 -1 0 0 0 Z " transform="translate(191,115)" style="fill: #D3A972;"/><path d="M0 0 C2.97 0 5.94 0 9 0 C9.66 1.65 10.32 3.3 11 5 C7.37 4.67 3.74 4.34 0 4 C0 2.68 0 1.36 0 0 Z " transform="translate(144,93)" style="fill: #BE8C4B;"/><path d="M0 0 C4.2742558 1.5830577 6.26531794 4.50568404 9 8 C8.34 9.32 7.68 10.64 7 12 C5 11 5 11 4 9 C3.01 9 2.02 9 1 9 C1.66 7.35 2.32 5.7 3 4 C1.68 4 0.36 4 -1 4 C-1 1 -1 1 0 0 Z " transform="translate(72,185)" style="fill: #C5B399;"/><path d="M0 0 C2.475 0.495 2.475 0.495 5 1 C6.2077558 4.62326739 5.54311128 5.64146369 4 9 C2.68 9 1.36 9 0 9 C0 6.03 0 3.06 0 0 Z " transform="translate(190,164)" style="fill: #E0CAAB;"/><path d="M0 0 C1.98 0 3.96 0 6 0 C6.625 1.875 6.625 1.875 7 4 C5 6 5 6 2 6 C2 6.66 2 7.32 2 8 C1.34 8 0.68 8 0 8 C0 5.36 0 2.72 0 0 Z " transform="translate(131,211)" style="fill: #D7C6AA;"/><path d="M0 0 C2.375 -0.125 2.375 -0.125 5 0 C5.66 0.66 6.32 1.32 7 2 C6.625 4.125 6.625 4.125 6 6 C4.35 6 2.7 6 1 6 C0.67 6.66 0.34 7.32 0 8 C0 5.36 0 2.72 0 0 Z " transform="translate(122,211)" style="fill: #D3C4AA;"/><path d="M0 0 C0.99 0 1.98 0 3 0 C2.67 4.95 2.34 9.9 2 15 C1.01 15.33 0.02 15.66 -1 16 C-1.11138159 10.54230189 -0.91657981 5.38490641 0 0 Z " transform="translate(65,121)" style="fill: #A2763D;"/><path d="M0 0 C0.66 0.33 1.32 0.66 2 1 C2.2361959 7.40353322 1.823321 12.84629161 0 19 C-0.66 18.67 -1.32 18.34 -2 18 C-1.34 12.06 -0.68 6.12 0 0 Z " transform="translate(181,125)" style="fill: #CE9959;"/><path d="M0 0 C0.05384521 2.29141286 0.09272087 4.58318188 0.125 6.875 C0.14820313 8.15117187 0.17140625 9.42734375 0.1953125 10.7421875 C0 14 0 14 -2 16 C-3.36271133 13.27457733 -3.16923601 11.03912726 -3.1875 8 C-3.20167969 6.9275 -3.21585938 5.855 -3.23046875 4.75 C-2.83238636 0 -2.83238636 0 0 0 Z " transform="translate(178,124)" style="fill: #D2AB77;"/><path d="M0 0 C0.33 0.99 0.66 1.98 1 3 C1.66 3 2.32 3 3 3 C1.63016497 6.16115776 1.0109362 6.9927092 -2 9 C-3.32 8.01 -4.64 7.02 -6 6 C-4.02 4.02 -2.04 2.04 0 0 Z " transform="translate(87,77)" style="fill: #B48D5B;"/><path d="M0 0 C3.59476701 3.49205938 6.92026191 7.04033675 10 11 C10 11.66 10 12.32 10 13 C6.91245575 11.64416535 4.95292371 10.17282591 2.75 7.625 C2.22921875 7.03976563 1.7084375 6.45453125 1.171875 5.8515625 C0 4 0 4 0 0 Z " transform="translate(80,142)" style="fill: #AF8553;"/><path d="M0 0 C0 0.99 0 1.98 0 3 C0.66 3 1.32 3 2 3 C2.33 2.01 2.66 1.02 3 0 C3 0.66 3 1.32 3 2 C3.99 2 4.98 2 6 2 C6 2.66 6 3.32 6 4 C3.36 4 0.72 4 -2 4 C-1.34 5.32 -0.68 6.64 0 8 C-0.99 8 -1.98 8 -3 8 C-3.38063221 5.6739143 -3.71269945 3.33944736 -4 1 C-3 0 -3 0 0 0 Z " transform="translate(168,197)" style="fill: #CEBB94;"/><path d="M0 0 C0.99 0.99 1.98 1.98 3 3 C1.125 4.625 1.125 4.625 -2 6 C-5.42515549 5.67055756 -8.68193505 4.89555539 -12 4 C-12 3.67 -12 3.34 -12 3 C-11.30132812 2.86722656 -10.60265625 2.73445312 -9.8828125 2.59765625 C-8.51769531 2.33275391 -8.51769531 2.33275391 -7.125 2.0625 C-6.22007813 1.88847656 -5.31515625 1.71445313 -4.3828125 1.53515625 C-2.00043683 1.10036299 -2.00043683 1.10036299 0 0 Z " transform="translate(111,145)" style="fill: #F0ECE3;"/><path d="M0 0 C-0.66 1.32 -1.32 2.64 -2 4 C-5.63 4 -9.26 4 -13 4 C-9.38656695 0.38656695 -4.97659681 -0.29274099 0 0 Z " transform="translate(166,130)" style="fill: #C4995D;"/><path d="M0 0 C0.66 0 1.32 0 2 0 C3.4783226 2.95664519 3.06032783 5.74229737 3 9 C2.01 9 1.02 9 0 9 C-0.99 9.495 -0.99 9.495 -2 10 C-2 8.35 -2 6.7 -2 5 C-2.99 4.67 -3.98 4.34 -5 4 C-4.0409375 3.8453125 -4.0409375 3.8453125 -3.0625 3.6875 C-2.381875 3.460625 -1.70125 3.23375 -1 3 C-0.67 2.01 -0.34 1.02 0 0 Z " transform="translate(110,130)" style="fill: #E5DAC8;"/><path d="M0 0 C0.66 0.33 1.32 0.66 2 1 C-2.29 4.3 -6.58 7.6 -11 11 C-12.32 10.34 -13.64 9.68 -15 9 C-14.33613281 8.68546875 -13.67226562 8.3709375 -12.98828125 8.046875 C-8.24303558 5.74698951 -3.95396814 3.55857132 0 0 Z " transform="translate(123,147)" style="fill: #BE9D79;"/><path d="M0 0 C0.66 0.99 1.32 1.98 2 3 C1.67 3.99 1.34 4.98 1 6 C-1.5625 7.1875 -1.5625 7.1875 -4 8 C-4.99 7.01 -5.98 6.02 -7 5 C-6.030625 4.360625 -5.06125 3.72125 -4.0625 3.0625 C-1.23963731 1.3034741 -1.23963731 1.3034741 0 0 Z " transform="translate(116,147)" style="fill: #F3EFE5;"/><path d="M0 0 C0.66 0.99 1.32 1.98 2 3 C1.26299754 6.53761179 0.60744131 8.46402237 -2.125 10.875 C-3.053125 11.431875 -3.053125 11.431875 -4 12 C-4.99 11.34 -5.98 10.68 -7 10 C-6.21625 9.46375 -5.4325 8.9275 -4.625 8.375 C-1.66573701 5.69757158 -0.95391744 3.81566975 0 0 Z " transform="translate(170,134)" style="fill: #C6A065;"/><path d="M0 0 C1.35439668 2.70879335 1.06501451 5.00933268 1 8 C0.01 8.33 -0.98 8.66 -2 9 C-3.36623674 6.26752652 -3.128426 4.01801098 -3 1 C-2 0 -2 0 0 0 Z " transform="translate(69,147)" style="fill: #A57B45;"/><path d="M0 0 C1.32 0 2.64 0 4 0 C3.88637738 1.4800841 3.75877092 2.95910074 3.625 4.4375 C3.52058594 5.67306641 3.52058594 5.67306641 3.4140625 6.93359375 C3.27742187 7.61550781 3.14078125 8.29742187 3 9 C2.01 9.495 2.01 9.495 1 10 C0.67 6.7 0.34 3.4 0 0 Z " transform="translate(188,140)" style="fill: #CE9A59;"/><path d="M0 0 C2.12438339 -0.08078641 4.2496323 -0.13909141 6.375 -0.1875 C7.55835938 -0.22230469 8.74171875 -0.25710937 9.9609375 -0.29296875 C11.46527344 -0.14794922 11.46527344 -0.14794922 13 0 C13.66 0.99 14.32 1.98 15 3 C9.5610835 3.21755666 5.12919186 3.10428384 0 1 C0 0.67 0 0.34 0 0 Z " transform="translate(123,202)" style="fill: #B88445;"/><path d="M0 0 C1.16306443 3.54950034 0.92365049 6.55823948 0.5625 10.25 C0.40974609 11.86648437 0.40974609 11.86648437 0.25390625 13.515625 C0.17011719 14.33546875 0.08632812 15.1553125 0 16 C-0.33 16 -0.66 16 -1 16 C-1.144375 14.7625 -1.28875 13.525 -1.4375 12.25 C-1.71359153 9.98124786 -2.02786575 7.89689673 -2.625 5.6875 C-3 4 -3 4 -2 1 C-1.34 0.67 -0.68 0.34 0 0 Z " transform="translate(80,119)" style="fill: #BC9569;"/><path d="M0 0 C3.7726764 0.53895377 5.68212991 1.99535358 8 5 C7.60546875 7.13671875 7.60546875 7.13671875 7 9 C5.82737096 7.88121617 4.66204862 6.75476949 3.5 5.625 C2.8503125 4.99851562 2.200625 4.37203125 1.53125 3.7265625 C0 2 0 2 0 0 Z " transform="translate(118,111)" style="fill: #B38A52;"/><path d="M0 0 C0 0.66 0 1.32 0 2 C3.3 2 6.6 2 10 2 C10 2.33 10 2.66 10 3 C8.75283203 3.09087891 8.75283203 3.09087891 7.48046875 3.18359375 C5.85044922 3.30927734 5.85044922 3.30927734 4.1875 3.4375 C2.56908203 3.55931641 2.56908203 3.55931641 0.91796875 3.68359375 C-2.05989905 3.90212461 -2.05989905 3.90212461 -5 5 C-5 4.34 -5 3.68 -5 3 C-5.66 2.67 -6.32 2.34 -7 2 C-4.35261084 0.5393715 -3.10551666 0 0 0 Z " transform="translate(97,103)" style="fill: #BB9D76;"/><path d="M0 0 C0.96661363 3.12180401 0.98988909 5.52083795 0.5625 8.75 C0.46066406 9.54921875 0.35882813 10.3484375 0.25390625 11.171875 C0.12822266 12.07679688 0.12822266 12.07679688 0 13 C-1.98 12.34 -3.96 11.68 -6 11 C-5.47599609 10.18595703 -5.47599609 10.18595703 -4.94140625 9.35546875 C-4.48636719 8.64003906 -4.03132812 7.92460937 -3.5625 7.1875 C-3.11003906 6.47980469 -2.65757812 5.77210938 -2.19140625 5.04296875 C-0.85913661 2.91865448 -0.85913661 2.91865448 0 0 Z " transform="translate(183,159)" style="fill: #D0A26C;"/><path d="M0 0 C-0.33 4.62 -0.66 9.24 -1 14 C-1.33 14 -1.66 14 -2 14 C-2.41676948 12.23397681 -2.8077738 10.46185699 -3.1875 8.6875 C-3.40792969 7.70136719 -3.62835938 6.71523437 -3.85546875 5.69921875 C-4 3 -4 3 -2.61328125 1.14453125 C-1 0 -1 0 0 0 Z " transform="translate(120,159)" style="fill: #B9915C;"/><path d="M0 0 C1.32 0.66 2.64 1.32 4 2 C2.68 2 1.36 2 0 2 C0 3.65 0 5.3 0 7 C0.99 7.33 1.98 7.66 3 8 C3 8.66 3 9.32 3 10 C1.35 9.67 -0.3 9.34 -2 9 C-2.125 5.625 -2.125 5.625 -2 2 C-1.34 1.34 -0.68 0.68 0 0 Z " transform="translate(196,148)" style="fill: #D4BC92;"/><path d="M0 0 C3.875 0.875 3.875 0.875 5 2 C5.04080783 3.99958364 5.04254356 6.00045254 5 8 C3.68 8.33 2.36 8.66 1 9 C1 8.01 1 7.02 1 6 C1.66 6.33 2.32 6.66 3 7 C2.67 5.35 2.34 3.7 2 2 C0.515 2.99 0.515 2.99 -1 4 C-0.67 2.68 -0.34 1.36 0 0 Z " transform="translate(55,146)" style="fill: #BBA889;"/><path d="M0 0 C1.88391785 3.26545761 2.49287967 6.28111761 3 10 C1.68 9.67 0.36 9.34 -1 9 C-1 11.31 -1 13.62 -1 16 C-1.33 16 -1.66 16 -2 16 C-2.20674944 10.21101581 -1.59162079 5.57067277 0 0 Z " transform="translate(66,112)" style="fill: #B18C61;"/><path d="M0 0 C3.62613199 0.56959153 5.25517741 1.92374534 7.75 4.5625 C8.36359375 5.20316406 8.9771875 5.84382813 9.609375 6.50390625 C10.06828125 6.99761719 10.5271875 7.49132812 11 8 C10.34 8.66 9.68 9.32 9 10 C7.49702124 8.52386015 5.99768715 7.04400843 4.5 5.5625 C3.6646875 4.73878906 2.829375 3.91507812 1.96875 3.06640625 C0 1 0 1 0 0 Z " transform="translate(113,110)" style="fill: #F6F3EC;"/><path d="M0 0 C4.29238623 1.65091778 6.8793915 4.73754566 10 8 C9.67 8.66 9.34 9.32 9 10 C7.68113228 8.90344712 6.37009943 7.79746577 5.0625 6.6875 C4.33160156 6.07261719 3.60070313 5.45773438 2.84765625 4.82421875 C1 3 1 3 0 0 Z " transform="translate(60,82)" style="fill: #B1976D;"/><path d="M0 0 C1 3 1 3 0.5 5.3125 C-0.08602891 8.46240537 0.34806642 10.88520622 1 14 C0.34 13.67 -0.32 13.34 -1 13 C-1.33333333 11.33333333 -1.66666667 9.66666667 -2 8 C-2.66 7.67 -3.32 7.34 -4 7 C-1.125 1.125 -1.125 1.125 0 0 Z " transform="translate(138,96)" style="fill: #C19A68;"/><path d="M0 0 C0.33 0.99 0.66 1.98 1 3 C1.99 3.33 2.98 3.66 4 4 C2.68 5.65 1.36 7.3 0 9 C-0.33 8.34 -0.66 7.68 -1 7 C-1.66 7 -2.32 7 -3 7 C-1.125 2.25 -1.125 2.25 0 0 Z " transform="translate(76,90)" style="fill: #AE8658;"/><path d="M0 0 C2.31 0 4.62 0 7 0 C7 0.66 7 1.32 7 2 C7.66 2.33 8.32 2.66 9 3 C6.69 3.33 4.38 3.66 2 4 C1.34 2.68 0.68 1.36 0 0 Z " transform="translate(137,200)" style="fill: #BD8D50;"/><path d="M0 0 C0.33 0 0.66 0 1 0 C1.99 4.62 2.98 9.24 4 14 C3.01 14 2.02 14 1 14 C-0.04976964 10.85069107 -0.10131595 8.61185544 -0.0625 5.3125 C-0.05347656 4.31863281 -0.04445313 3.32476562 -0.03515625 2.30078125 C-0.02355469 1.54152344 -0.01195313 0.78226562 0 0 Z " transform="translate(85,127)" style="fill: #F9F7F2;"/><path d="M0 0 C1.77706209 2.66559313 2.87548273 5.0280615 4 8 C1.03 7.505 1.03 7.505 -2 7 C-1.125 2.25 -1.125 2.25 0 0 Z " transform="translate(101,180)" style="fill: #B59161;"/><path d="M0 0 C2.475 0.99 2.475 0.99 5 2 C4.34 3.98 3.68 5.96 3 8 C1.68 8 0.36 8 -1 8 C-0.34 6.68 0.32 5.36 1 4 C1.33 4.33 1.66 4.66 2 5 C2.33 4.01 2.66 3.02 3 2 C2.01 2 1.02 2 0 2 C0 1.34 0 0.68 0 0 Z " transform="translate(187,174)" style="fill: #D4BE96;"/><path d="M0 0 C0.98613281 0.20882812 1.97226563 0.41765625 2.98828125 0.6328125 C3.98214844 0.83648437 4.97601563 1.04015625 6 1.25 C6.75925781 1.41757813 7.51851562 1.58515625 8.30078125 1.7578125 C8.30078125 2.0878125 8.30078125 2.4178125 8.30078125 2.7578125 C6.63015625 2.974375 6.63015625 2.974375 4.92578125 3.1953125 C1.47936078 3.54153285 1.47936078 3.54153285 -0.69921875 4.7578125 C-3.32421875 3.3203125 -3.32421875 3.3203125 -5.69921875 1.7578125 C-2.69921875 -0.2421875 -2.69921875 -0.2421875 0 0 Z " transform="translate(151.69921875,149.2421875)" style="fill: #C59E69;"/><path d="M0 0 C3 1 3 1 4.1875 2.625 C5.27499354 5.80382728 5.1282071 8.66661533 5 12 C3.20931427 9.3139714 2.33944209 7.3373411 1.375 4.3125 C1.11460937 3.50425781 0.85421875 2.69601563 0.5859375 1.86328125 C0.39257812 1.24839844 0.19921875 0.63351563 0 0 Z " transform="translate(172,117)" style="fill: #CA9555;"/><path d="M0 0 C-1.98 0.99 -3.96 1.98 -6 3 C-6 5.31 -6 7.62 -6 10 C-8.5654594 7.4345406 -8.54046087 5.52313332 -9 2 C-3.375 -1.125 -3.375 -1.125 0 0 Z " transform="translate(106,53)" style="fill: #BA9E7A;"/><path d="M0 0 C1.65 0 3.3 0 5 0 C3.68 0.33 2.36 0.66 1 1 C1.33 4.3 1.66 7.6 2 11 C1.34 11 0.68 11 0 11 C-0.33 11.66 -0.66 12.32 -1 13 C-0.67 8.71 -0.34 4.42 0 0 Z " transform="translate(187,139)" style="fill: #D6B182;"/><path d="M0 0 C-0.33 1.98 -0.66 3.96 -1 6 C-1.66 5.67 -2.32 5.34 -3 5 C-3 4.34 -3 3.68 -3 3 C-4.32 3.33 -5.64 3.66 -7 4 C-7 3.34 -7 2.68 -7 2 C-4 0 -4 0 0 0 Z " transform="translate(67,167)" style="fill: #CFC2AB;"/><path d="M0 0 C2.5654594 2.5654594 2.54046087 4.47686668 3 8 C2.01 8.495 2.01 8.495 1 9 C1 7.68 1 6.36 1 5 C-0.32 4.67 -1.64 4.34 -3 4 C-3 3.34 -3 2.68 -3 2 C-2.01 1.34 -1.02 0.68 0 0 Z " transform="translate(70,154)" style="fill: #AA8655;"/><path d="M0 0 C1.65 0 3.3 0 5 0 C5 1.65 5 3.3 5 5 C3.0625 5.5625 3.0625 5.5625 1 6 C0 5 0 5 -0.0625 2.4375 C-0.041875 1.633125 -0.02125 0.82875 0 0 Z " transform="translate(197,138)" style="fill: #F6F2E7;"/><path d="M0 0 C0.33 0 0.66 0 1 0 C1.3125 2.8125 1.3125 2.8125 1 6 C-1.5 7.875 -1.5 7.875 -4 9 C-5 8 -5 8 -5.0625 5.4375 C-5.041875 4.633125 -5.02125 3.82875 -5 3 C-4.34 3 -3.68 3 -3 3 C-2.67 3.99 -2.34 4.98 -2 6 C-1.34 4.02 -0.68 2.04 0 0 Z " transform="translate(111,133)" style="fill: #B79165;"/><path d="M0 0 C2.125 0.375 2.125 0.375 4 1 C4 1.99 4 2.98 4 4 C3.01 4.33 2.02 4.66 1 5 C0.01 4.01 -0.98 3.02 -2 2 C-1.34 1.34 -0.68 0.68 0 0 Z " transform="translate(106,129)" style="fill: #B18455;"/><path d="M0 0 C1.22589844 0.01353516 1.22589844 0.01353516 2.4765625 0.02734375 C3.41628906 0.04474609 3.41628906 0.04474609 4.375 0.0625 C4.375 0.7225 4.375 1.3825 4.375 2.0625 C1.075 2.3925 -2.225 2.7225 -5.625 3.0625 C-5.955 2.4025 -6.285 1.7425 -6.625 1.0625 C-4.21954362 -0.14022819 -2.67503047 -0.03821472 0 0 Z " transform="translate(102.625,107.9375)" style="fill: #AE7E49;"/><path d="M0 0 C1.65 0 3.3 0 5 0 C4.34 0.66 3.68 1.32 3 2 C3.99 2.33 4.98 2.66 6 3 C6 3.66 6 4.32 6 5 C4.02 5 2.04 5 0 5 C-1 2 -1 2 0 0 Z " transform="translate(162,87)" style="fill: #C79B59;"/><path d="M0 0 C0.66 0.33 1.32 0.66 2 1 C1.67 3.31 1.34 5.62 1 8 C0.01 8 -0.98 8 -2 8 C-1.125 1.125 -1.125 1.125 0 0 Z " transform="translate(114,83)" style="fill: #B38350;"/><path d="M0 0 C0 0.66 0 1.32 0 2 C-2.64458379 3.32229189 -4.67761301 3.09677194 -7.625 3.0625 C-8.62789062 3.05347656 -9.63078125 3.04445312 -10.6640625 3.03515625 C-11.43492187 3.02355469 -12.20578125 3.01195312 -13 3 C-13 2.67 -13 2.34 -13 2 C-11.39658445 1.66307215 -9.79223445 1.33058907 -8.1875 1 C-7.29417969 0.814375 -6.40085938 0.62875 -5.48046875 0.4375 C-3 0 -3 0 0 0 Z " transform="translate(166,153)" style="fill: #F9F7F1;"/><path d="M0 0 C2.375 0.3125 2.375 0.3125 5 1 C5.66 1.99 6.32 2.98 7 4 C5.1875 4.6875 5.1875 4.6875 3 5 C1.25 3.6875 1.25 3.6875 0 2 C0 1.34 0 0.68 0 0 Z " transform="translate(136,147)" style="fill: #C29764;"/><path d="M0 0 C1.32 0 2.64 0 4 0 C4 1.65 4 3.3 4 5 C2.68 5 1.36 5 0 5 C0 3.35 0 1.7 0 0 Z " transform="translate(128,150)" style="fill: #FEFEFC;"/><path d="M0 0 C0.33 1.32 0.66 2.64 1 4 C1.66 4 2.32 4 3 4 C1.74458443 6.51083114 0.49936512 6.87125446 -2 8 C-2.33 7.34 -2.66 6.68 -3 6 C-2.06553465 3.96855359 -1.06775224 1.96466413 0 0 Z " transform="translate(71,99)" style="fill: #AD8A5B;"/><path d="M0 0 C1.98 0 3.96 0 6 0 C4.68 0.33 3.36 0.66 2 1 C2.66 1.78375 3.32 2.5675 4 3.375 C6 6 6 6 6 8 C2.24623848 6.74874616 1.75926711 5.4347596 0 2 C0 1.34 0 0.68 0 0 Z " transform="translate(70,69)" style="fill: #AA865C;"/><path d="M0 0 C0.99 0.33 1.98 0.66 3 1 C1.35 2.65 -0.3 4.3 -2 6 C-2.33 4.68 -2.66 3.36 -3 2 C-2.01 1.34 -1.02 0.68 0 0 Z " transform="translate(111,139)" style="fill: #F4EFE6;"/><path d="M0 0 C1.9375 0.6875 1.9375 0.6875 4 2 C4.75 4.625 4.75 4.625 5 7 C2.5 5.1875 2.5 5.1875 0 3 C0 2.01 0 1.02 0 0 Z " transform="translate(116,119)" style="fill: #EDE7D9;"/><path d="M0 0 C0.66 0.33 1.32 0.66 2 1 C2 2.65 2 4.3 2 6 C0.68 6 -0.64 6 -2 6 C-1.125 1.125 -1.125 1.125 0 0 Z " transform="translate(56,147)" style="fill: #EEECE2;"/><path d="M0 0 C-1 1.5625 -1 1.5625 -3 3 C-5.76614782 2.96726452 -8.26030547 2.49404328 -11 2 C-11 1.67 -11 1.34 -11 1 C-7.27569643 0.30710631 -3.78916254 -0.11144596 0 0 Z " transform="translate(166,145)" style="fill: #C09153;"/><path d="M0 0 C1.65 1.65 3.3 3.3 5 5 C4.34 5.66 3.68 6.32 3 7 C1.68 5.35 0.36 3.7 -1 2 C-0.67 1.34 -0.34 0.68 0 0 Z " transform="translate(88,144)" style="fill: #B49062;"/><path d="M0 0 C1.98 0.99 1.98 0.99 4 2 C4 2.99 4 3.98 4 5 C3.01 5 2.02 5 1 5 C0.67 3.35 0.34 1.7 0 0 Z " transform="translate(135,136)" style="fill: #C1965D;"/><path d="M0 0 C1.875 0.25 1.875 0.25 4 1 C5.25 3.0625 5.25 3.0625 6 5 C4.125 4.75 4.125 4.75 2 4 C0.75 1.9375 0.75 1.9375 0 0 Z " transform="translate(111,111)" style="fill: #B2844F;"/><path d="M0 0 C2.25 0.25 2.25 0.25 4 1 C2.02 2.32 0.04 3.64 -2 5 C-2.66 4.67 -3.32 4.34 -4 4 C-2.25 1.9375 -2.25 1.9375 0 0 Z " transform="translate(93,107)" style="fill: #F5F2EB;"/><path d="M0 0 C0.66 0.99 1.32 1.98 2 3 C1.67 3.99 1.34 4.98 1 6 C-0.32 5.34 -1.64 4.68 -3 4 C-2.01 2.68 -1.02 1.36 0 0 Z " transform="translate(169,183)" style="fill: #C1944C;"/><path d="M0 0 C2.04119788 1.61594832 4.04072937 3.2856382 6 5 C6 5.66 6 6.32 6 7 C3.53199953 5.84826645 1.95216435 4.95216435 0 3 C0 2.01 0 1.02 0 0 Z " transform="translate(84,148)" style="fill: #A77D47;"/><path d="M0 0 C-0.66 3.63 -1.32 7.26 -2 11 C-2.33 11 -2.66 11 -3 11 C-3.02688151 9.35425434 -3.04634123 7.70838587 -3.0625 6.0625 C-3.07410156 5.14597656 -3.08570312 4.22945313 -3.09765625 3.28515625 C-2.97403051 0.39231385 -2.90946437 0 0 0 Z " transform="translate(91,122)" style="fill: #AB7D43;"/><path d="M0 0 C3.3 0 6.6 0 10 0 C10 0.33 10 0.66 10 1 C8.88625 1.103125 7.7725 1.20625 6.625 1.3125 C5.42875 1.539375 4.2325 1.76625 3 2 C2.01 3.485 2.01 3.485 1 5 C0.67 3.35 0.34 1.7 0 0 Z " transform="translate(137,74)" style="fill: #BA883F;"/></svg>